<?xml version="1.0" encoding="UTF-8"?>
<svg version="1.1" xmlns="http://www.w3.org/2000/svg" width="547" height="177">
<path d="M0 0 C180.51 0 361.02 0 547 0 C547 58.41 547 116.82 547 177 C366.49 177 185.98 177 0 177 C0 118.59 0 60.18 0 0 Z " fill="#FDFEFE" transform="translate(0,0)"/>
<path d="M0 0 C3.11317006 1.96935358 5.54747602 4.26550134 8 7 C8.33 7.33 8.66 7.66 9 8 C9.59095616 15.09147394 9.59095616 15.09147394 7.328125 18.5703125 C0.32406354 25.87992027 -11.72765926 29.68106742 -21.6875 30.1875 C-22.8321875 30.0946875 -22.8321875 30.0946875 -24 30 C-22.9453661 35.99476109 -21.60555604 41.97018517 -18 47 C-17.01 47.33 -16.02 47.66 -15 48 C-14.12214844 47.55527344 -14.12214844 47.55527344 -13.2265625 47.1015625 C-8.22812719 44.6286524 -2.37714461 45.1647154 3 46 C9.7953212 49.29470119 14.24721145 54.61792282 17.23046875 61.48046875 C19.0830131 67.54590583 18.57304639 73.21064563 16 79 C12.78948879 84.70757549 8.33069246 89.88976918 2 92 C-6.43919554 92.79939622 -13.29553778 93.0522617 -20.265625 87.703125 C-22 86 -22 86 -23.484375 83.859375 C-25.24631034 81.69782546 -26.28817758 81.37404447 -29 81 C-29.31453125 81.55429688 -29.6290625 82.10859375 -29.953125 82.6796875 C-30.38109375 83.40414062 -30.8090625 84.12859375 -31.25 84.875 C-31.66765625 85.59429687 -32.0853125 86.31359375 -32.515625 87.0546875 C-35.06697082 90.39829333 -37.54836409 90.92213174 -41.625 91.625 C-43.08180828 91.76667126 -44.54039501 91.89084693 -46 92 C-46.73089844 92.06574219 -47.46179688 92.13148438 -48.21484375 92.19921875 C-53.71559991 92.46464625 -58.69642177 91.52347483 -64 90.125 C-64.65943604 89.95137939 -65.31887207 89.77775879 -65.99829102 89.59887695 C-68.96915863 88.76214892 -70.7832124 88.2167876 -73 86 C-73.61488281 86.27714844 -74.22976562 86.55429688 -74.86328125 86.83984375 C-75.67152344 87.20207031 -76.47976562 87.56429687 -77.3125 87.9375 C-78.51326172 88.47697266 -78.51326172 88.47697266 -79.73828125 89.02734375 C-86.6310658 91.99159825 -95.2655841 92.2017019 -102.5546875 90.3515625 C-108.81472183 87.5016636 -112.60467444 82.511586 -115.875 76.625 C-118.43796415 68.36655995 -116.57932029 60.33373473 -115 52 C-117.2477975 54.05233685 -118.0022242 55.00667261 -119 58 C-119.66 58 -120.32 58 -121 58 C-121.09071777 58.58120605 -121.18143555 59.16241211 -121.27490234 59.76123047 C-122.53639533 66.9388854 -124.88352425 73.39125019 -127.625 80.125 C-128.04523438 81.176875 -128.46546875 82.22875 -128.8984375 83.3125 C-129.92470334 85.8781646 -130.95863658 88.44043495 -132 91 C-135.3 91 -138.6 91 -142 91 C-142.556875 89.5975 -143.11375 88.195 -143.6875 86.75 C-144.8658367 83.78311653 -146.07054373 80.83779044 -147.34375 77.91015625 C-149.66555489 72.55785601 -151.6015054 67.8445875 -152 62 C-152.66 62 -153.32 62 -154 62 C-154.0928125 63.36125 -154.0928125 63.36125 -154.1875 64.75 C-155.00378597 70.52230791 -157.6943786 75.69841126 -160 81 C-161.35287916 84.32582794 -162.67498647 87.66292889 -164 91 C-167.63 91 -171.26 91 -175 91 C-175.37511719 89.85144531 -175.75023437 88.70289062 -176.13671875 87.51953125 C-178.56425233 80.12843739 -181.0182954 72.74526137 -183.6875 65.4375 C-184.06261719 64.40496094 -184.43773437 63.37242188 -184.82421875 62.30859375 C-185.82955626 59.66690203 -185.82955626 59.66690203 -189 59 C-190.22861898 65.03140227 -189.6461683 68.80650123 -187.71484375 74.609375 C-186.42821687 78.91219278 -186.23216439 82.43489098 -188.22265625 86.4921875 C-191.20854471 90.70524331 -195.38200121 92.84541269 -200 95 C-203.5 95.5625 -203.5 95.5625 -206 95 C-208 92 -208 92 -207.75 89.4375 C-207 87 -207 87 -205 85 C-202.87109375 84.62109375 -202.87109375 84.62109375 -200.4375 84.4375 C-197.41952212 84.41550697 -197.41952212 84.41550697 -195 83 C-194.07762643 72.16211058 -198.90347705 61.09325803 -205.5234375 52.703125 C-206.46541088 51.58648321 -207.41597506 50.47703172 -208.375 49.375 C-208.82101563 48.84148926 -209.26703125 48.30797852 -209.7265625 47.75830078 C-212.30815893 44.93838888 -213.81243217 44.02954143 -217.62109375 43.4296875 C-221.46764537 44.07893205 -222.38537261 44.69536123 -224.6875 47.75 C-226.39457704 49.95005155 -227.95491866 51.95868273 -230.01171875 53.84375 C-236.01098598 60.34983155 -239.62945496 72.19479438 -240.1875 80.9375 C-240.22273082 82.99066398 -240.22273082 82.99066398 -239 84 C-236.45243896 84.28306234 -233.90489978 84.44815786 -231.34765625 84.62109375 C-229 85 -229 85 -227 87 C-227.57692308 93.57692308 -227.57692308 93.57692308 -229 95 C-233.73239599 95.43021782 -236.13979143 94.702146 -240 92 C-241.0725 91.34 -242.145 90.68 -243.25 90 C-246 88 -246 88 -247 85 C-248.82379186 72.57974657 -243.1258064 60.47564373 -237 50 C-236.67 48.96875 -236.34 47.9375 -236 46.875 C-234.85842023 43.59295815 -233.37279308 41.52109264 -231 39 C-230.34 39 -229.68 39 -229 39 C-228.67 38.01 -228.34 37.02 -228 36 C-222.74285714 32 -222.74285714 32 -219 32 C-218.731875 31.42765625 -218.46375 30.8553125 -218.1875 30.265625 C-212.22292116 18.88583642 -202.40632247 11.11097883 -190.38671875 6.96484375 C-180.88571874 4.2580998 -171.56568263 3.82648584 -161.75 3.75 C-160.38403687 3.7358606 -160.38403687 3.7358606 -158.99047852 3.72143555 C-152.76762188 3.75132872 -147.05676352 4.62466505 -141 6 C-138.95957461 6.38169621 -136.91816964 6.75827724 -134.875 7.125 C-133.94429688 7.29257812 -133.01359375 7.46015625 -132.0546875 7.6328125 C-131.37664062 7.75398438 -130.69859375 7.87515625 -130 8 C-130 8.66 -130 9.32 -130 10 C-128.989375 10.061875 -127.97875 10.12375 -126.9375 10.1875 C-120.04940038 11.03319195 -113.51947583 13.72134825 -107 16 C-104.72828686 16.76281384 -102.45381901 17.51646581 -100.17822266 18.26757812 C-98.78492089 18.73607233 -97.39589829 19.21762209 -96.01293945 19.71582031 C-90.11113526 21.80067804 -84.22169576 23.05643724 -78.0625 24.125 C-77.13759766 24.29386719 -76.21269531 24.46273437 -75.25976562 24.63671875 C-63.91346654 26.65631228 -52.8836751 27.13502792 -41.375 27.0625 C-39.97526203 27.05747197 -38.5755223 27.05291138 -37.17578125 27.04882812 C-33.78380831 27.03713167 -30.39192767 27.02074086 -27 27 C-26.94501343 26.01725098 -26.94501343 26.01725098 -26.88891602 25.01464844 C-26.1839323 15.53701818 -22.47071702 8.63993244 -15.25 2.3125 C-10.4542366 -0.86608737 -5.54784861 -1.38294197 0 0 Z " fill="#F8FBFC" transform="translate(265,39)"/>
<path d="M0 0 C3.11317006 1.96935358 5.54747602 4.26550134 8 7 C8.33 7.33 8.66 7.66 9 8 C9.59095616 15.09147394 9.59095616 15.09147394 7.328125 18.5703125 C0.32406354 25.87992027 -11.72765926 29.68106742 -21.6875 30.1875 C-22.8321875 30.0946875 -22.8321875 30.0946875 -24 30 C-22.9453661 35.99476109 -21.60555604 41.97018517 -18 47 C-17.01 47.33 -16.02 47.66 -15 48 C-14.12214844 47.55527344 -14.12214844 47.55527344 -13.2265625 47.1015625 C-8.22812719 44.6286524 -2.37714461 45.1647154 3 46 C9.7953212 49.29470119 14.24721145 54.61792282 17.23046875 61.48046875 C19.0830131 67.54590583 18.57304639 73.21064563 16 79 C12.78948879 84.70757549 8.33069246 89.88976918 2 92 C-6.38649248 92.79440396 -13.42845821 93.14120279 -20.265625 87.640625 C-26.23526467 81.99366856 -28.03610754 76.72980837 -28.375 68.5625 C-28.26630794 62.48410571 -26.58071537 57.7100591 -22.36328125 53.28125 C-21.91339844 52.8584375 -21.46351563 52.435625 -21 52 C-21.96950123 50.03056477 -22.95160362 48.08528721 -24.03515625 46.17578125 C-24.37417969 45.56089844 -24.71320313 44.94601563 -25.0625 44.3125 C-25.40410156 43.71050781 -25.74570313 43.10851562 -26.09765625 42.48828125 C-27.45141269 38.75519531 -27.67340793 34.93974839 -28 31 C-29.05799805 31.01047363 -30.11599609 31.02094727 -31.20605469 31.03173828 C-35.18697636 31.0683438 -39.16788363 31.09104573 -43.14892578 31.10986328 C-44.86151646 31.11982955 -46.57409054 31.13340747 -48.28662109 31.15087891 C-58.07828685 31.24816606 -67.38121545 31.08277203 -77 29 C-77.83128418 28.83790039 -78.66256836 28.67580078 -79.51904297 28.50878906 C-81.87207532 28.04871219 -84.21746654 27.56162275 -86.5625 27.0625 C-87.37243408 26.89137695 -88.18236816 26.72025391 -89.0168457 26.54394531 C-95.07353102 25.24439881 -101.05955318 23.76211007 -107 22 C-107 21.34 -107 20.68 -107 20 C-107.92619141 19.83564453 -107.92619141 19.83564453 -108.87109375 19.66796875 C-116.09251462 18.31601324 -122.79085685 16.35121817 -129.5625 13.5 C-149.58687252 6.16549146 -176.34145352 5.42181869 -195.90234375 14.3203125 C-203.27825112 18.37983445 -210.18707437 23.88470954 -213 32 C-211.845 32.61875 -210.69 33.2375 -209.5 33.875 C-201.78675802 38.73858953 -196.84512602 45.54545357 -194.7109375 54.359375 C-193.88508872 57.42681332 -192.70343251 60.21262348 -191.4375 63.125 C-188.51040843 70.01071842 -186.2815432 76.38435794 -187 84 C-189.8378623 89.82125601 -194.27205406 92.32755244 -200 95 C-203.5 95.5625 -203.5 95.5625 -206 95 C-208 92 -208 92 -207.75 89.4375 C-207 87 -207 87 -205 85 C-202.87109375 84.62109375 -202.87109375 84.62109375 -200.4375 84.4375 C-197.41952212 84.41550697 -197.41952212 84.41550697 -195 83 C-194.07762643 72.16211058 -198.90347705 61.09325803 -205.5234375 52.703125 C-206.46541088 51.58648321 -207.41597506 50.47703172 -208.375 49.375 C-208.82101563 48.84148926 -209.26703125 48.30797852 -209.7265625 47.75830078 C-212.30815893 44.93838888 -213.81243217 44.02954143 -217.62109375 43.4296875 C-221.46764537 44.07893205 -222.38537261 44.69536123 -224.6875 47.75 C-226.39457704 49.95005155 -227.95491866 51.95868273 -230.01171875 53.84375 C-236.01098598 60.34983155 -239.62945496 72.19479438 -240.1875 80.9375 C-240.22273082 82.99066398 -240.22273082 82.99066398 -239 84 C-236.45243896 84.28306234 -233.90489978 84.44815786 -231.34765625 84.62109375 C-229 85 -229 85 -227 87 C-227.57692308 93.57692308 -227.57692308 93.57692308 -229 95 C-233.73239599 95.43021782 -236.13979143 94.702146 -240 92 C-241.0725 91.34 -242.145 90.68 -243.25 90 C-246 88 -246 88 -247 85 C-248.82379186 72.57974657 -243.1258064 60.47564373 -237 50 C-236.67 48.96875 -236.34 47.9375 -236 46.875 C-234.85842023 43.59295815 -233.37279308 41.52109264 -231 39 C-230.34 39 -229.68 39 -229 39 C-228.67 38.01 -228.34 37.02 -228 36 C-222.74285714 32 -222.74285714 32 -219 32 C-218.731875 31.42765625 -218.46375 30.8553125 -218.1875 30.265625 C-212.22292116 18.88583642 -202.40632247 11.11097883 -190.38671875 6.96484375 C-180.88571874 4.2580998 -171.56568263 3.82648584 -161.75 3.75 C-160.38403687 3.7358606 -160.38403687 3.7358606 -158.99047852 3.72143555 C-152.76762188 3.75132872 -147.05676352 4.62466505 -141 6 C-138.95957461 6.38169621 -136.91816964 6.75827724 -134.875 7.125 C-133.94429688 7.29257812 -133.01359375 7.46015625 -132.0546875 7.6328125 C-131.37664062 7.75398438 -130.69859375 7.87515625 -130 8 C-130 8.66 -130 9.32 -130 10 C-128.989375 10.061875 -127.97875 10.12375 -126.9375 10.1875 C-120.04940038 11.03319195 -113.51947583 13.72134825 -107 16 C-104.72828686 16.76281384 -102.45381901 17.51646581 -100.17822266 18.26757812 C-98.78492089 18.73607233 -97.39589829 19.21762209 -96.01293945 19.71582031 C-90.11113526 21.80067804 -84.22169576 23.05643724 -78.0625 24.125 C-77.13759766 24.29386719 -76.21269531 24.46273437 -75.25976562 24.63671875 C-63.91346654 26.65631228 -52.8836751 27.13502792 -41.375 27.0625 C-39.97526203 27.05747197 -38.5755223 27.05291138 -37.17578125 27.04882812 C-33.78380831 27.03713167 -30.39192767 27.02074086 -27 27 C-26.94501343 26.01725098 -26.94501343 26.01725098 -26.88891602 25.01464844 C-26.1839323 15.53701818 -22.47071702 8.63993244 -15.25 2.3125 C-10.4542366 -0.86608737 -5.54784861 -1.38294197 0 0 Z " fill="#3979E1" transform="translate(265,39)"/>
<path d="M0 0 C1.98 0 3.96 0 6 0 C6 7.92 6 15.84 6 24 C6.66 24 7.32 24 8 24 C8.33 23.01 8.66 22.02 9 21 C14.29580956 16.78742421 19.07426842 16.27244562 25.76953125 16.48046875 C32.15149108 17.50682988 36.15766209 21.0655452 40.5 25.625 C44.26896513 31.59252812 43.76874976 39.20813315 43 46 C40.7478547 51.83397049 36.65776951 56.17291461 31.20703125 59.1953125 C24.95399194 61.4751817 18.06580313 60.37874632 12 58 C9.0625 55.875 9.0625 55.875 7 54 C6.67 55.98 6.34 57.96 6 60 C4.02 60 2.04 60 0 60 C0 40.2 0 20.4 0 0 Z " fill="#65AC40" transform="translate(423,70)"/>
<path d="M0 0 C0.5775 0.639375 1.155 1.27875 1.75 1.9375 C4.7219385 0.81298273 7.08440687 -0.28543791 9.75 -2.0625 C15.4078518 -3.67902909 20.78512008 -3.63841308 26.375 -2 C30.41312413 0.31818237 33.321976 2.94511154 35.75 6.9375 C36.77819138 10.91603804 36.86570902 14.67155292 36.84765625 18.76953125 C36.84282227 20.70795898 36.84282227 20.70795898 36.83789062 22.68554688 C36.82953665 24.04036526 36.82107172 25.39518297 36.8125 26.75 C36.80748 28.12434735 36.80291797 29.49869645 36.79882812 30.87304688 C36.78705668 34.22790924 36.77061283 37.58268221 36.75 40.9375 C33.12 40.9375 29.49 40.9375 25.75 40.9375 C25.42 30.3775 25.09 19.8175 24.75 8.9375 C19.25037268 6.73764907 15.600448 6.19390487 9.875 7.6875 C7.63585002 8.70214569 7.63585002 8.70214569 7.13696289 10.60839844 C6.64539918 13.56708473 6.52899292 16.45486526 6.43359375 19.453125 C6.37075195 21.32871094 6.37075195 21.32871094 6.30664062 23.2421875 C6.26732422 24.54414062 6.22800781 25.84609375 6.1875 27.1875 C6.12272461 29.16363281 6.12272461 29.16363281 6.05664062 31.1796875 C5.95058083 34.43218788 5.84851976 37.68476392 5.75 40.9375 C2.12 40.9375 -1.51 40.9375 -5.25 40.9375 C-5.58 30.3775 -5.91 19.8175 -6.25 8.9375 C-10.32552432 6.89973784 -13.79567517 5.80410418 -18.25 6.9375 C-21.37097242 8.49798621 -22.47879866 9.06319418 -24.25 11.9375 C-25.1506066 16.85858954 -25.13690639 21.76300955 -25.125 26.75 C-25.14313731 28.12438718 -25.16394329 29.4987419 -25.1875 30.87304688 C-25.23459373 34.22847546 -25.25444084 37.58180845 -25.25 40.9375 C-28.55 40.9375 -31.85 40.9375 -35.25 40.9375 C-35.25 26.7475 -35.25 12.5575 -35.25 -2.0625 C-32.28 -2.0625 -29.31 -2.0625 -26.25 -2.0625 C-26.25 -0.7425 -26.25 0.5775 -26.25 1.9375 C-25.363125 1.298125 -24.47625 0.65875 -23.5625 0 C-16.64708216 -4.3058262 -6.91117701 -4.38593926 0 0 Z " fill="#1969F0" transform="translate(326.25,89.0625)"/>
<path d="M0 0 C2.97 0 5.94 0 9 0 C11.43843139 5.81757744 13.53811804 11.60779162 15.2734375 17.671875 C15.95147756 19.84451948 16.75512413 21.86361722 17.6875 23.9375 C19 27 19 27 19 30 C19.66 30 20.32 30 21 30 C21.2475 28.741875 21.495 27.48375 21.75 26.1875 C22.97833802 20.59767191 24.94687375 15.33214826 27 10 C27.66 10 28.32 10 29 10 C29.66 6.7 30.32 3.4 31 0 C34.3 0 37.6 0 41 0 C44.12571462 8.30398185 47.24755229 16.60708699 50.23828125 24.9609375 C50.96817502 27.02463172 50.96817502 27.02463172 52 29 C55.17626597 21.74189436 57.95335516 14.4355848 60.38745117 6.90209961 C61.91911713 2.16176574 61.91911713 2.16176574 63 0 C65.97 0 68.94 0 72 0 C71.34 3.3 70.68 6.6 70 10 C69.34 10 68.68 10 68 10 C67.90928223 10.58120605 67.81856445 11.16241211 67.72509766 11.76123047 C66.46360467 18.9388854 64.11647575 25.39125019 61.375 32.125 C60.95476562 33.176875 60.53453125 34.22875 60.1015625 35.3125 C59.07529666 37.8781646 58.04136342 40.44043495 57 43 C53.7 43 50.4 43 47 43 C46.443125 41.5975 45.88625 40.195 45.3125 38.75 C44.1341633 35.78311653 42.92945627 32.83779044 41.65625 29.91015625 C39.33444511 24.55785601 37.3984946 19.8445875 37 14 C36.34 14 35.68 14 35 14 C34.9071875 15.36125 34.9071875 15.36125 34.8125 16.75 C33.99621403 22.52230791 31.3056214 27.69841126 29 33 C27.64712084 36.32582794 26.32501353 39.66292889 25 43 C21.37 43 17.74 43 14 43 C13.6596875 41.95585937 13.319375 40.91171875 12.96875 39.8359375 C9.69475616 29.87056101 6.22817752 19.9960985 2.54101562 10.17529297 C2.04504883 8.83748779 2.04504883 8.83748779 1.5390625 7.47265625 C1.24209473 6.68125244 0.94512695 5.88984863 0.63916016 5.07446289 C0 3 0 3 0 0 Z " fill="#226EEB" transform="translate(76,87)"/>
<path d="M0 0 C5.6601281 3.23912936 10.14527492 6.44363726 12.2734375 12.828125 C12.84655685 20.98405427 13.11076192 27.827975 7.984375 34.5078125 C3.98898815 38.97324486 0.07675365 40.45657546 -5.92578125 41.04296875 C-12.47260853 41.32084767 -17.25021939 39.84375311 -22.4140625 35.640625 C-27.37770011 29.60376844 -29.48718921 24.4298877 -29.1796875 16.51171875 C-28.24221388 10.95961205 -25.28837001 7.30983982 -21.2890625 3.515625 C-14.35170422 -1.05287923 -8.02585613 -3.44950836 0 0 Z " fill="#EDF6F3" transform="translate(267.7265625,88.171875)"/>
<path d="M0 0 C3.73723935 3.28782449 6.84229295 6.46437885 8.4375 11.25 C8.4375 14.88 8.4375 18.51 8.4375 22.25 C-2.4525 22.25 -13.3425 22.25 -24.5625 22.25 C-22.22401858 28.16731018 -22.22401858 28.16731018 -18.5625 30.25 C-15.23303975 30.56880186 -15.23303975 30.56880186 -11.5625 30.5 C-10.325 30.50515625 -9.0875 30.5103125 -7.8125 30.515625 C-4.41576856 30.50251361 -4.41576856 30.50251361 -1.5625 28.25 C1.73879606 28.55949651 3.2961563 29.78745474 5.4375 32.25 C3.80195614 36.04765306 1.93446192 37.72397733 -1.88671875 39.484375 C-8.82588707 41.46988886 -17.44231515 41.66187418 -24.125 38.6875 C-29.0264318 35.66548431 -32.46940117 31.53557028 -34.9375 26.375 C-36.39380154 19.0934923 -36.18864622 11.88584758 -32.5625 5.25 C-24.62628574 -4.13403713 -10.51924006 -7.64319315 0 0 Z " fill="#2B72E4" transform="translate(184.5625,89.75)"/>
<path d="M0 0 C2.80316598 2.60194862 4.14666325 4.9148186 5.578125 8.46484375 C5.578125 12.09484375 5.578125 15.72484375 5.578125 19.46484375 C-5.311875 19.46484375 -16.201875 19.46484375 -27.421875 19.46484375 C-25.24127667 26.3131027 -25.24127667 26.3131027 -21.421875 28.46484375 C-18.35575101 28.78339751 -18.35575101 28.78339751 -14.984375 28.71484375 C-13.85128906 28.72 -12.71820313 28.72515625 -11.55078125 28.73046875 C-8.54651009 28.47542451 -6.99198948 27.9192949 -4.421875 26.46484375 C-1.11067009 26.76586238 0.4290682 27.99342843 2.578125 30.46484375 C1.07047845 34.68625409 -1.63480369 36.26834239 -5.421875 38.46484375 C-12.8303637 40.7724058 -20.14646225 39.91284895 -27.16015625 36.796875 C-30.80804772 34.64846224 -33.08969242 31.95157216 -35.421875 28.46484375 C-36.040625 27.57796875 -36.659375 26.69109375 -37.296875 25.77734375 C-39.384909 19.62924365 -39.39105412 13.13008634 -37.171875 7.02734375 C-33.35682722 1.44102379 -29.76320167 -3.16421099 -23.046875 -5.28515625 C-14.38882067 -6.10973285 -7.06950674 -5.4931978 0 0 Z " fill="#1368F2" transform="translate(408.421875,91.53515625)"/>
<path d="M0 0 C0.33 1.32 0.66 2.64 1 4 C1.886875 4.061875 2.77375 4.12375 3.6875 4.1875 C7.90902861 5.22296928 9.1517325 6.73491287 12 10 C12.87205078 10.87011719 12.87205078 10.87011719 13.76171875 11.7578125 C17.88064147 16.02353121 19.83404842 19.55671721 21.25390625 25.2890625 C22.10328762 28.37529638 23.2872663 31.19011433 24.5625 34.125 C27.48959157 41.01071842 29.7184568 47.38435794 29 55 C26.1621377 60.82125601 21.72794594 63.32755244 16 66 C12.5 66.5625 12.5 66.5625 10 66 C8 63 8 63 8.25 60.4375 C9 58 9 58 11 56 C13.12890625 55.62109375 13.12890625 55.62109375 15.5625 55.4375 C18.58047788 55.41550697 18.58047788 55.41550697 21 54 C21.92237357 43.16211058 17.09652295 32.09325803 10.4765625 23.703125 C9.53458912 22.58648321 8.58402494 21.47703172 7.625 20.375 C7.17898437 19.84148926 6.73296875 19.30797852 6.2734375 18.75830078 C3.69184107 15.93838888 2.18756783 15.02954143 -1.62109375 14.4296875 C-5.46764537 15.07893205 -6.38537261 15.69536123 -8.6875 18.75 C-10.39457704 20.95005155 -11.95491866 22.95868273 -14.01171875 24.84375 C-20.01098598 31.34983155 -23.62945496 43.19479438 -24.1875 51.9375 C-24.22273082 53.99066398 -24.22273082 53.99066398 -23 55 C-20.45243896 55.28306234 -17.90489978 55.44815786 -15.34765625 55.62109375 C-13 56 -13 56 -11 58 C-11.57692308 64.57692308 -11.57692308 64.57692308 -13 66 C-17.73239599 66.43021782 -20.13979143 65.702146 -24 63 C-25.0725 62.34 -26.145 61.68 -27.25 61 C-30 59 -30 59 -31 56 C-32.82379186 43.57974657 -27.1258064 31.47564373 -21 21 C-20.67 19.96875 -20.34 18.9375 -20 17.875 C-18.85842023 14.59295815 -17.37279308 12.52109264 -15 10 C-14.34 10 -13.68 10 -13 10 C-12.67 9.01 -12.34 8.02 -12 7 C-10.0390625 6.19140625 -10.0390625 6.19140625 -7.625 5.5625 C-4.48892926 4.62516884 -3.22792492 4.24173856 -0.9375 1.8125 C-0.628125 1.214375 -0.31875 0.61625 0 0 Z " fill="#3A79E3" transform="translate(49,68)"/>
<path d="M0 0 C-0.74438917 3.1385057 -1.75837359 6.02009661 -3 9 C-3.83789062 8.67257813 -4.67578125 8.34515625 -5.5390625 8.0078125 C-9.3312931 6.90352864 -12.43553543 6.80067048 -16.375 6.875 C-18.24285156 6.90207031 -18.24285156 6.90207031 -20.1484375 6.9296875 C-21.08945313 6.95289062 -22.03046875 6.97609375 -23 7 C-23.33 8.65 -23.66 10.3 -24 12 C-20.9134194 13.74521613 -18.24848539 14.38521205 -14.75 14.875 C-8.52118926 15.94922003 -3.17161523 17.42120691 1 22.375 C2.22418426 25.58848369 2.48811501 27.58319491 2 31 C-0.83223674 37.15703639 -5.00442039 38.74297679 -11 41 C-11.99 41.495 -11.99 41.495 -13 42 C-21.14063898 42.8140639 -29.13004817 41.57996789 -36 37 C-35.01 34.03 -35.01 34.03 -34 31 C-29.47043011 29.74178614 -29.47043011 29.74178614 -27.2421875 30.96484375 C-24.20607944 32.36653127 -21.70340273 32.22882328 -18.375 32.1875 C-16.65410156 32.17783203 -16.65410156 32.17783203 -14.8984375 32.16796875 C-12.0607447 32.19483817 -12.0607447 32.19483817 -10 31 C-9.34444881 28.47266765 -9.34444881 28.47266765 -9 26 C-13.3775106 24.60715572 -17.56936111 23.7549155 -22.125 23.125 C-27.74259655 22.22618455 -30.84644206 20.87141058 -34.3125 16.25 C-35.3731674 12.77872487 -35.67567031 9.54897536 -35 6 C-32.95190256 2.27915365 -30.07094213 -0.64301929 -26 -2 C-16.87025794 -4.17374811 -8.73361485 -3.12180276 0 0 Z " fill="#2972E8" transform="translate(232,89)"/>
<path d="M0 0 C4.36326947 2.22372415 7.29529529 4.94294294 10 9 C11.55308986 23.07589863 11.55308986 23.07589863 7.9375 27.75 C2.05868427 32.25292268 -2.75802067 33.68971232 -10 33 C-13.375 31.8125 -13.375 31.8125 -16 30 C-17.1875 27.375 -17.1875 27.375 -18 25 C-18.99 24.67 -19.98 24.34 -21 24 C-22.06717146 11.93926857 -22.06717146 11.93926857 -19.546875 7.359375 C-13.74855464 0.78144854 -8.77279441 -1.39838821 0 0 Z " fill="#F7FBF5" transform="translate(450,92)"/>
<path d="M0 0 C1.98 0 3.96 0 6 0 C6 7.59 6 15.18 6 23 C8.97 20.525 8.97 20.525 12 18 C18.23282742 15.92239086 25.57422068 15.91168917 31.5625 18.75 C36.17277701 21.48943996 38.140849 24.42426243 39.58544922 29.61254883 C40.54629931 35.14620787 40.19845122 40.84108202 40.125 46.4375 C40.11597656 47.74138672 40.10695313 49.04527344 40.09765625 50.38867188 C40.07418397 53.59263832 40.04134727 56.79622264 40 60 C37.69 60 35.38 60 33 60 C32.98541748 59.18845459 32.97083496 58.37690918 32.95581055 57.54077148 C32.88102368 53.83921807 32.78446239 50.13853621 32.6875 46.4375 C32.65366211 44.52227539 32.65366211 44.52227539 32.61914062 42.56835938 C32.44250243 33.3494774 32.44250243 33.3494774 29 25 C23.55309398 23.18436466 17.35533979 23.067678 12 25.1875 C8.76308767 28.1209518 7.1683109 30.77848676 6.56762695 35.13793945 C6.54144287 36.28480225 6.51525879 37.43166504 6.48828125 38.61328125 C6.45283203 39.86044922 6.41738281 41.10761719 6.38085938 42.39257812 C6.35830078 43.68615234 6.33574219 44.97972656 6.3125 46.3125 C6.27833984 47.62541016 6.24417969 48.93832031 6.20898438 50.29101562 C6.12660728 53.52725851 6.05741984 56.76323385 6 60 C4.02 60 2.04 60 0 60 C0 40.2 0 20.4 0 0 Z " fill="#98C681" transform="translate(476,70)"/>
<path d="M0 0 C3.54877586 2.01417008 6.47426249 4.63602498 8.3125 8.3125 C8.98104136 13.69370998 8.67368251 18.22260183 5.63671875 22.8046875 C2.14798198 26.77711344 -1.48754246 28.1029836 -6.625 29 C-11.23553788 28.78388104 -13.86405967 26.17704214 -17.12109375 23.13671875 C-20.36268411 19.36159981 -20.13457916 14.86817247 -20.109375 10.1171875 C-19.44571222 5.70505904 -17.163818 3.0022059 -13.6875 0.3125 C-9.09175319 -1.2194156 -4.65168181 -1.18996511 0 0 Z " fill="#5DAC35" transform="translate(265.6875,94.6875)"/>
<path d="M0 0 C0.33 0.66 0.66 1.32 1 2 C0.01 2.495 0.01 2.495 -1 3 C-2.13350534 5.01669827 -2.13350534 5.01669827 -3 7 C-3.99 7 -4.98 7 -6 7 C-6.309375 7.78375 -6.61875 8.5675 -6.9375 9.375 C-8 12 -8 12 -9 14 C-9.66 14 -10.32 14 -11 14 C-10.67 15.32 -10.34 16.64 -10 18 C-9.01 17.34 -8.02 16.68 -7 16 C-6.01 16 -5.02 16 -4 16 C-4.33 14.35 -4.66 12.7 -5 11 C-4.34 10.67 -3.68 10.34 -3 10 C-2.01 10.33 -1.02 10.66 0 11 C-0.33 9.35 -0.66 7.7 -1 6 C6.425 6.99 6.425 6.99 14 8 C14.495 10.97 14.495 10.97 15 14 C13.9790625 13.01 13.9790625 13.01 12.9375 12 C10.10187785 9.80419264 10.10187785 9.80419264 6.625 9.25 C1.94913246 10.21742087 0.52843717 12.18292106 -2.32421875 15.859375 C-4 18 -4 18 -6.01171875 19.84375 C-12.01098598 26.34983155 -15.62945496 38.19479438 -16.1875 46.9375 C-16.22273082 48.99066398 -16.22273082 48.99066398 -15 50 C-12.45243896 50.28306234 -9.90489978 50.44815786 -7.34765625 50.62109375 C-5 51 -5 51 -3 53 C-3.57692308 59.57692308 -3.57692308 59.57692308 -5 61 C-9.73239599 61.43021782 -12.13979143 60.702146 -16 58 C-17.0725 57.34 -18.145 56.68 -19.25 56 C-22 54 -22 54 -23 51 C-24.82379186 38.57974657 -19.1258064 26.47564373 -13 16 C-12.67 14.96875 -12.34 13.9375 -12 12.875 C-10.85842023 9.59295815 -9.37279308 7.52109264 -7 5 C-6.34 5 -5.68 5 -5 5 C-4.67 4.01 -4.34 3.02 -4 2 C-1.9375 0.8125 -1.9375 0.8125 0 0 Z " fill="#2D71E6" transform="translate(41,73)"/>
<path d="M0 0 C3.04292953 3.3906929 3.83928541 6.93558278 4.1875 11.4375 C3.8575 12.4275 3.5275 13.4175 3.1875 14.4375 C2.1975 14.4375 1.2075 14.4375 0.1875 14.4375 C-0.1425 15.7575 -0.4725 17.0775 -0.8125 18.4375 C-4.37528089 18.29807319 -7.9376426 18.14982922 -11.5 18 C-12.50740234 17.96068359 -13.51480469 17.92136719 -14.55273438 17.88085938 C-15.52919922 17.83896484 -16.50566406 17.79707031 -17.51171875 17.75390625 C-18.40721436 17.71724854 -19.30270996 17.68059082 -20.2253418 17.64282227 C-27.24268395 17.08591137 -27.24268395 17.08591137 -29.625 14.375 C-30.016875 13.735625 -30.40875 13.09625 -30.8125 12.4375 C-28.05771876 8.2135021 -26.19457991 6.14683578 -21.1875 5.0625 C-15.73878747 4.24191076 -10.30910341 4.24940331 -4.8125 4.4375 C-4.4825 5.4275 -4.1525 6.4175 -3.8125 7.4375 C-2.8225 7.4375 -1.8325 7.4375 -0.8125 7.4375 C-1.03064254 4.3835044 -1.87125373 3.37874627 -4.0625 1.1875 C-9.3954764 -2.12935118 -17.29190203 -1.3251051 -23.2109375 -0.04296875 C-24.00371094 0.19486328 -24.00371094 0.19486328 -24.8125 0.4375 C-24.8125 1.0975 -24.8125 1.7575 -24.8125 2.4375 C-25.8025 2.4375 -26.7925 2.4375 -27.8125 2.4375 C-27.8125 3.0975 -27.8125 3.7575 -27.8125 4.4375 C-28.4725 4.4375 -29.1325 4.4375 -29.8125 4.4375 C-32.37775333 9.38477428 -34.03239169 13.64600176 -34.4375 19.25 C-34.51226562 20.22582031 -34.58703125 21.20164062 -34.6640625 22.20703125 C-34.71304687 22.94308594 -34.76203125 23.67914063 -34.8125 24.4375 C-35.1425 24.4375 -35.4725 24.4375 -35.8125 24.4375 C-36.18047946 16.01485905 -35.86594685 10.85973337 -31 3.8125 C-22.63989895 -5.26418114 -10.53927567 -5.85515315 0 0 Z " fill="#226DE7" transform="translate(405.8125,89.5625)"/>
<path d="M0 0 C2.69127754 2.43496539 4.53820522 4.65875478 6 8 C6 11.63 6 15.26 6 19 C-4.89 19 -15.78 19 -27 19 C-24.81940167 25.84825895 -24.81940167 25.84825895 -21 28 C-17.93387601 28.31855376 -17.93387601 28.31855376 -14.5625 28.25 C-13.42941406 28.25515625 -12.29632813 28.2603125 -11.12890625 28.265625 C-8.12463509 28.01058076 -6.57011448 27.45445115 -4 26 C-0.68879509 26.30101863 0.8509432 27.52858468 3 30 C1.49235345 34.22141034 -1.21292869 35.80349864 -5 38 C-12.40831092 40.30750668 -19.70520967 39.43749448 -26.7265625 36.34765625 C-30.26750314 34.24864505 -32.86861087 31.51765849 -35 28 C-35 27.34 -35 26.68 -35 26 C-34.34 26 -33.68 26 -33 26 C-33 26.99 -33 27.98 -33 29 C-32.01 29 -31.02 29 -30 29 C-29.93941406 28.28972656 -29.87882812 27.57945313 -29.81640625 26.84765625 C-29.73261719 25.92855469 -29.64882813 25.00945312 -29.5625 24.0625 C-29.48128906 23.14597656 -29.40007812 22.22945312 -29.31640625 21.28515625 C-29 19 -29 19 -28 18 C-25.6243148 17.9116033 -23.27791326 17.88469695 -20.90234375 17.90234375 C-19.83905602 17.90446617 -19.83905602 17.90446617 -18.75428772 17.90663147 C-16.48198288 17.91224557 -14.20977525 17.92480037 -11.9375 17.9375 C-10.40039204 17.94251319 -8.86328255 17.94707641 -7.32617188 17.95117188 C-3.55074358 17.96221958 0.22461171 17.97949359 4 18 C3.91306859 16.20741442 3.80489496 14.41584856 3.6875 12.625 C3.62949219 11.62726563 3.57148438 10.62953125 3.51171875 9.6015625 C3.34285156 8.74304688 3.17398438 7.88453125 3 7 C2.01 6.34 1.02 5.68 0 5 C-0.1875 2.375 -0.1875 2.375 0 0 Z " fill="#3C7AE1" transform="translate(408,92)"/>
<path d="M0 0 C3.33454999 2.48317552 4.75468654 3.92954128 5.6875 8 C4.91179621 11.38488927 3.75700678 12.79272078 0.97265625 14.83984375 C-5.93113246 18.90009177 -14.90662559 22.49050754 -23 22 C-22.71669632 14.20914869 -19.85595396 8.90229956 -14.375 3.35546875 C-9.51160255 -0.86352853 -6.23035618 -1.50387908 0 0 Z " fill="#F5FAFA" transform="translate(265,43)"/>
<path d="M0 0 C1.98 0 3.96 0 6 0 C6 7.59 6 15.18 6 23 C7.32 22.67 8.64 22.34 10 22 C10.26583915 25.10145677 10.25254595 26.61386845 8.52026367 29.26245117 C6.67861369 32.57872246 6.57451507 34.83623987 6.48828125 38.61328125 C6.45283203 39.86044922 6.41738281 41.10761719 6.38085938 42.39257812 C6.35830078 43.68615234 6.33574219 44.97972656 6.3125 46.3125 C6.27833984 47.62541016 6.24417969 48.93832031 6.20898438 50.29101562 C6.12660728 53.52725851 6.05741984 56.76323385 6 60 C4.02 60 2.04 60 0 60 C0 40.2 0 20.4 0 0 Z " fill="#71AD4F" transform="translate(476,70)"/>
<path d="M0 0 C2.97 0 5.94 0 9 0 C8.34 3.3 7.68 6.6 7 10 C6.34 10 5.68 10 5 10 C4.86392334 10.87180908 4.86392334 10.87180908 4.72509766 11.76123047 C3.46360467 18.9388854 1.11647575 25.39125019 -1.625 32.125 C-2.04523438 33.176875 -2.46546875 34.22875 -2.8984375 35.3125 C-3.92470334 37.8781646 -4.95863658 40.44043495 -6 43 C-9.3 43 -12.6 43 -16 43 C-16.64910154 41.41800369 -17.29414694 39.83434276 -17.9375 38.25 C-18.29714844 37.36828125 -18.65679687 36.4865625 -19.02734375 35.578125 C-19.85356576 33.38813896 -20.49369943 31.28101729 -21 29 C-20.34 29 -19.68 29 -19 29 C-18.34 31.97 -17.68 34.94 -17 38 C-16.34 38 -15.68 38 -15 38 C-14.67 38.66 -14.34 39.32 -14 40 C-10.97065509 40.65772428 -10.97065509 40.65772428 -8 41 C-8 39.68 -8 38.36 -8 37 C-7.34 37 -6.68 37 -6 37 C-6 36.01 -6 35.02 -6 34 C-6.66 34 -7.32 34 -8 34 C-8 33.34 -8 32.68 -8 32 C-10.475 32.495 -10.475 32.495 -13 33 C-13.33 30.36 -13.66 27.72 -14 25 C-13.01 26.32 -12.02 27.64 -11 29 C-7.82373403 21.74189436 -5.04664484 14.4355848 -2.61254883 6.90209961 C-1.08088287 2.16176574 -1.08088287 2.16176574 0 0 Z " fill="#1767F0" transform="translate(139,87)"/>
<path d="M0 0 C1.37890625 2.05859375 1.37890625 2.05859375 2 4 C2.66 4 3.32 4 4 4 C4 6.64 4 9.28 4 12 C1.03824877 11.38722388 -0.38058783 10.74627478 -3 9 C-7.53198311 8.3285951 -12.88225039 7.5655414 -16.828125 10.23828125 C-18.34454386 11.99520519 -18.34454386 11.99520519 -20 15 C-20.66 15.99 -21.32 16.98 -22 18 C-22.66 17.01 -23.32 16.02 -24 15 C-24 15.99 -24 16.98 -24 18 C-23.67 18 -23.34 18 -23 18 C-22.63794536 19.95689037 -22.28558579 21.91557668 -21.9375 23.875 C-21.64166016 25.51082031 -21.64166016 25.51082031 -21.33984375 27.1796875 C-21 30 -21 30 -22 32 C-22.66 32 -23.32 32 -24 32 C-24 32.66 -24 33.32 -24 34 C-24.66 34 -25.32 34 -26 34 C-26.33 32.02 -26.66 30.04 -27 28 C-27.66 28 -28.32 28 -29 28 C-29.054138 25.75026553 -29.09285491 23.50015617 -29.125 21.25 C-29.14820313 19.99703125 -29.17140625 18.7440625 -29.1953125 17.453125 C-29.01537302 14.27179508 -28.68998582 12.63478104 -27 10 C-26.34 10 -25.68 10 -25 10 C-25 9.34 -25 8.68 -25 8 C-24.01 8 -23.02 8 -22 8 C-22.33 7.01 -22.66 6.02 -23 5 C-22 2 -22 2 -20.390625 1.015625 C-13.73962255 -1.36320069 -6.8824171 -1.80700478 0 0 Z " fill="#2D74E6" transform="translate(180,87)"/>
<path d="M0 0 C0.33 1.32 0.66 2.64 1 4 C1.886875 4.061875 2.77375 4.12375 3.6875 4.1875 C8.45638185 5.35722574 10.77375178 8.01464574 13.3125 12.125 C14 14 14 14 14 17 C13.34 17 12.68 17 12 17 C12.66 17.99 13.32 18.98 14 20 C14.33 19.34 14.66 18.68 15 18 C15.66 18 16.32 18 17 18 C17.495 21.96 17.495 21.96 18 26 C14.01447701 25.43063957 11.07530165 24.65972035 8 22 C6.963532 18.99210575 6.50455024 16.16490608 6 13 C-0.93 12.505 -0.93 12.505 -8 12 C-8 13.32 -8 14.64 -8 16 C-9.32 16 -10.64 16 -12 16 C-12 17.65 -12 19.3 -12 21 C-12.78375 21.28875 -13.5675 21.5775 -14.375 21.875 C-17.09671632 22.84912254 -17.09671632 22.84912254 -19 25 C-19 23.02 -19 21.04 -19 19 C-18.34 19 -17.68 19 -17 19 C-16.690625 18.21625 -16.38125 17.4325 -16.0625 16.625 C-15 14 -15 14 -14 12 C-13.01 11.67 -12.02 11.34 -11 11 C-9.79117904 8.99983534 -9.79117904 8.99983534 -9 7 C-8.34 7 -7.68 7 -7 7 C-7 6.34 -7 5.68 -7 5 C-6.401875 4.9175 -5.80375 4.835 -5.1875 4.75 C-2.4033704 3.79544128 -1.56688858 2.42867729 0 0 Z " fill="#1267F4" transform="translate(49,68)"/>
<path d="M0 0 C7.3396953 -0.76146695 13.45456218 -1.22674438 19.5625 3.375 C24.65236259 8.12945155 28.31685909 13.43838167 29.36328125 20.42578125 C29.59498026 27.6816186 27.42787506 33.25572965 23 39 C16.86003707 45.01379931 12.54472824 46.36459366 3.8425293 46.4597168 C-4.00441038 46.282903 -8.1178143 42.8821857 -13.4375 37.5625 C-17.29632604 31.2340253 -17.86275311 24.24504719 -17 17 C-15.50908695 12.52726085 -13.4291398 9.22280188 -10 6 C-9.01 6.33 -8.02 6.66 -7 7 C-8.23697917 8.43229167 -9.47395833 9.86458333 -10.7109375 11.296875 C-14.67296205 16.53154985 -14.75005484 21.61129757 -14 28 C-13.17419088 30.28685603 -12.20772674 32.25431176 -10.97265625 34.34375 C-10 36 -10 36 -9 39 C-7.26857146 40.15922128 -7.26857146 40.15922128 -5 41 C-4.113125 41.37125 -3.22625 41.7425 -2.3125 42.125 C4.01606875 43.79669741 10.06185573 43.67027059 16.140625 41.1171875 C19.94041942 38.83411774 23.16234641 35.39037732 24.640625 31.171875 C25.65101558 25.06560149 26.34423703 17.67594439 23.5 12 C20.80361168 8.76433401 18.28763283 7.0096285 14.609375 5.04296875 C14.07828125 4.69878906 13.5471875 4.35460937 13 4 C13 3.34 13 2.68 13 2 C8.71 1.67 4.42 1.34 0 1 C0 0.67 0 0.34 0 0 Z " fill="#5889D5" transform="translate(254,85)"/>
<path d="M0 0 C0.33 0 0.66 0 1 0 C1 3.3 1 6.6 1 10 C-2.63 10 -6.26 10 -10 10 C-10 10.99 -10 11.98 -10 13 C-7.03 13.495 -7.03 13.495 -4 14 C-4 14.99 -4 15.98 -4 17 C-3.34 17 -2.68 17 -2 17 C-2 18.65 -2 20.3 -2 22 C-3.98 22.99 -3.98 22.99 -6 24 C-5.34 22.35 -4.68 20.7 -4 19 C-5.22809091 17.35444301 -5.22809091 17.35444301 -7 16 C-9.03871245 16.1762044 -9.03871245 16.1762044 -11 17 C-16.19675047 18.73225016 -21.58685067 18.60372217 -27 18 C-31.59425931 14.90771008 -31.89484989 13.52575055 -33 8 C-22.11 8 -11.22 8 0 8 C0 5.36 0 2.72 0 0 Z " fill="#E1EDF8" transform="translate(414,103)"/>
<path d="M0 0 C0.66 0.66 1.32 1.32 2 2 C2.33 1.34 2.66 0.68 3 0 C3.99 0.33 4.98 0.66 6 1 C6.91983592 4.9706796 7.19088698 8.76162062 7.31640625 12.83203125 C7.37924805 14.77045898 7.37924805 14.77045898 7.44335938 16.74804688 C7.48316352 18.10286192 7.52287591 19.45767967 7.5625 20.8125 C7.60573723 22.18686105 7.64935312 23.56121024 7.69335938 24.93554688 C7.7992979 28.29026669 7.90137189 31.6450586 8 35 C5.36 35 2.72 35 0 35 C-0.02505615 34.20827393 -0.0501123 33.41654785 -0.07592773 32.60083008 C-0.19215729 29.00456637 -0.31476176 25.4085472 -0.4375 21.8125 C-0.47681641 20.56662109 -0.51613281 19.32074219 -0.55664062 18.03710938 C-0.59853516 16.83505859 -0.64042969 15.63300781 -0.68359375 14.39453125 C-0.72025146 13.28956299 -0.75690918 12.18459473 -0.79467773 11.04614258 C-0.98152656 8.27407028 -1.38162366 5.70457127 -2 3 C-2.66 3 -3.32 3 -4 3 C-4 2.34 -4 1.68 -4 1 C-2 0 -2 0 0 0 Z " fill="#1367F2" transform="translate(354,94)"/>
<path d="M0 0 C0.33 0.99 0.66 1.98 1 3 C1.66 3.33 2.32 3.66 3 4 C3.12544081 11.52644836 3.12544081 11.52644836 2.51367188 13.8359375 C1.95673879 16.18225634 1.79165144 18.3574821 1.68359375 20.765625 C1.64169922 21.65507813 1.59980469 22.54453125 1.55664062 23.4609375 C1.51732422 24.38132812 1.47800781 25.30171875 1.4375 26.25 C1.39431641 27.18585938 1.35113281 28.12171875 1.30664062 29.0859375 C1.2008195 31.39048641 1.09873443 33.69513839 1 36 C2.98 36 4.96 36 7 36 C6.99214478 34.87972412 6.99214478 34.87972412 6.98413086 33.73681641 C6.96339599 30.36621943 6.95035101 26.99563586 6.9375 23.625 C6.92912109 22.449375 6.92074219 21.27375 6.91210938 20.0625 C6.90727539 18.38027344 6.90727539 18.38027344 6.90234375 16.6640625 C6.89448853 15.10872803 6.89448853 15.10872803 6.88647461 13.52197266 C7 11 7 11 8 9 C8.66 9.33 9.32 9.66 10 10 C9.67 19.24 9.34 28.48 9 38 C5.37 38 1.74 38 -2 38 C-2.33 27.44 -2.66 16.88 -3 6 C-6.90432869 4.04783565 -9.72213252 3.49360009 -14 3 C-13.67 2.34 -13.34 1.68 -13 1 C-8.65012229 -0.03568517 -4.45537928 -0.08910759 0 0 Z " fill="#347AE7" transform="translate(323,92)"/>
<path d="M0 0 C6.07769456 0.27828272 10.5151197 2.25848796 14.625 6.75 C18.56148013 11.36010239 18.37346708 16.3479719 18.34765625 22.20703125 C18.34443359 23.49931641 18.34121094 24.79160156 18.33789062 26.12304688 C18.32953665 27.47786526 18.32107172 28.83268297 18.3125 30.1875 C18.30748 31.56184735 18.30291797 32.93619645 18.29882812 34.31054688 C18.28705668 37.66540924 18.27061283 41.02018221 18.25 44.375 C14.62 44.375 10.99 44.375 7.25 44.375 C6.92 33.815 6.59 23.255 6.25 12.375 C3.775 11.385 3.775 11.385 1.25 10.375 C2.24 10.045 3.23 9.715 4.25 9.375 C4.58 7.725 4.91 6.075 5.25 4.375 C1.29 4.045 -2.67 3.715 -6.75 3.375 C-3.75 0.375 -3.75 0.375 0 0 Z M5.25 9.375 C5.25 10.035 5.25 10.695 5.25 11.375 C5.91 11.375 6.57 11.375 7.25 11.375 C8.12505177 15.20218371 8.43632495 18.84850909 8.56640625 22.76953125 C8.60830078 23.97158203 8.65019531 25.17363281 8.69335938 26.41210938 C8.73267578 27.65798828 8.77199219 28.90386719 8.8125 30.1875 C8.87727539 32.08532227 8.87727539 32.08532227 8.94335938 34.02148438 C9.0492447 37.13921889 9.15132405 40.25703035 9.25 43.375 C11.89 43.375 14.53 43.375 17.25 43.375 C17.15592956 39.35444475 17.04972181 35.33440512 16.93261719 31.31445312 C16.89450798 29.94898079 16.85962464 28.58341423 16.828125 27.21777344 C16.78208122 25.24652393 16.72318951 23.27558796 16.6640625 21.3046875 C16.61693115 19.52940674 16.61693115 19.52940674 16.56884766 17.71826172 C16.24584232 14.33140484 15.45350799 11.54634912 14.25 8.375 C13.59 8.375 12.93 8.375 12.25 8.375 C11.59 9.035 10.93 9.695 10.25 10.375 C9.92 9.715 9.59 9.055 9.25 8.375 C7.1754644 8.2259288 7.1754644 8.2259288 5.25 9.375 Z " fill="#407DE2" transform="translate(344.75,85.625)"/>
<path d="M0 0 C1 3 1 3 0 6 C-0.09338218 7.87313664 -0.12994843 9.74954362 -0.125 11.625 C-0.12757812 12.60726562 -0.13015625 13.58953125 -0.1328125 14.6015625 C-0.27005965 16.95225011 -0.27005965 16.95225011 1 18 C3.54756104 18.28306234 6.09510022 18.44815786 8.65234375 18.62109375 C11 19 11 19 13 21 C12.42307692 27.57692308 12.42307692 27.57692308 11 29 C6.26760401 29.43021782 3.86020857 28.702146 0 26 C-1.093125 25.525625 -2.18625 25.05125 -3.3125 24.5625 C-6.50956294 21.51413766 -6.50259747 20.59788807 -6.6875 16.3125 C-6.39913502 10.12024145 -4.4731628 4.4731628 0 0 Z " fill="#1869EC" transform="translate(25,105)"/>
<path d="M0 0 C1.98 0 3.96 0 6 0 C6 7.92 6 15.84 6 24 C7.65 24 9.3 24 11 24 C10.56286876 26.44793496 10.17390885 27.80435254 8.5 29.6875 C6.22517656 33.19451946 6.25427534 36.89652212 6 41 C5.67 41 5.34 41 5 41 C5 28.13 5 15.26 5 2 C4.01 2 3.02 2 2 2 C2 20.48 2 38.96 2 58 C2.66 58 3.32 58 4 58 C4 56.02 4 54.04 4 52 C5.32 52 6.64 52 8 52 C7.34 54.64 6.68 57.28 6 60 C4.02 60 2.04 60 0 60 C0 40.2 0 20.4 0 0 Z " fill="#76B357" transform="translate(423,70)"/>
<path d="M0 0 C2.475 0.495 2.475 0.495 5 1 C6.28317892 4.84953676 6.06643637 7.94738135 6 12 C5.34 12 4.68 12 4 12 C3.67 11.34 3.34 10.68 3 10 C2.54625 10.804375 2.0925 11.60875 1.625 12.4375 C0 15 0 15 -2 16 C-2 16.99 -2 17.98 -2 19 C-5.28519475 20.09506492 -7.73663415 20.09960608 -11.1875 20.0625 C-12.81751953 20.04896484 -12.81751953 20.04896484 -14.48046875 20.03515625 C-15.31191406 20.02355469 -16.14335937 20.01195312 -17 20 C-17 19.34 -17 18.68 -17 18 C-17.639375 17.855625 -18.27875 17.71125 -18.9375 17.5625 C-21 17 -21 17 -22 16 C-22 16.33 -22 16.66 -22 17 C-23.65 17 -25.3 17 -27 17 C-26.67 15.35 -26.34 13.7 -26 12 C-22 12 -22 12 -18.4375 12.5 C-12.4076011 13.29340775 -5.81693965 13.93897988 0 12 C0 10.02 0 8.04 0 6 C-1.98 5.01 -3.96 4.02 -6 3 C-6 2.67 -6 2.34 -6 2 C-4.02 2 -2.04 2 0 2 C0 1.34 0 0.68 0 0 Z " fill="#1167F4" transform="translate(225,109)"/>
<path d="M0 0 C1.51400391 0.01740234 1.51400391 0.01740234 3.05859375 0.03515625 C4.07050781 0.04417969 5.08242187 0.05320312 6.125 0.0625 C7.29869141 0.07990234 7.29869141 0.07990234 8.49609375 0.09765625 C8.49609375 0.75765625 8.49609375 1.41765625 8.49609375 2.09765625 C9.48609375 2.09765625 10.47609375 2.09765625 11.49609375 2.09765625 C11.49609375 2.75765625 11.49609375 3.41765625 11.49609375 4.09765625 C10.50609375 4.09765625 9.51609375 4.09765625 8.49609375 4.09765625 C8.49609375 4.75765625 8.49609375 5.41765625 8.49609375 6.09765625 C7.6040625 6.14664063 6.71203125 6.195625 5.79296875 6.24609375 C4.03726563 6.35824219 4.03726563 6.35824219 2.24609375 6.47265625 C0.50585938 6.57707031 0.50585938 6.57707031 -1.26953125 6.68359375 C-4.21084959 7.06013933 -6.00339636 7.57506855 -8.50390625 9.09765625 C-8.50390625 11.73765625 -8.50390625 14.37765625 -8.50390625 17.09765625 C-7.81683594 17.06285156 -7.12976563 17.02804688 -6.421875 16.9921875 C-5.52082031 16.96511719 -4.61976563 16.93804687 -3.69140625 16.91015625 C-2.35142578 16.85794922 -2.35142578 16.85794922 -0.984375 16.8046875 C1.9125689 17.14684623 2.72164403 17.85159198 4.49609375 20.09765625 C2.18609375 20.42765625 -0.12390625 20.75765625 -2.50390625 21.09765625 C-2.50390625 21.75765625 -2.50390625 22.41765625 -2.50390625 23.09765625 C-6.79390625 22.10765625 -11.08390625 21.11765625 -15.50390625 20.09765625 C-15.50390625 19.43765625 -15.50390625 18.77765625 -15.50390625 18.09765625 C-14.51390625 18.09765625 -13.52390625 18.09765625 -12.50390625 18.09765625 C-11.17598909 12.78598761 -10.75684483 7.3388405 -12.50390625 2.09765625 C-9.4199095 1.18387944 -6.70524782 1.09765625 -3.50390625 1.09765625 C-2.50390625 0.09765625 -2.50390625 0.09765625 0 0 Z " fill="#1867F1" transform="translate(216.50390625,87.90234375)"/>
<path d="M0 0 C0 0.33 0 0.66 0 1 C-2.97 1 -5.94 1 -9 1 C-9.33 1.99 -9.66 2.98 -10 4 C-11.65204456 4.70211894 -13.31923769 5.36971413 -15 6 C-15.33 6.66 -15.66 7.32 -16 8 C-15.01 8.33 -14.02 8.66 -13 9 C-13.825 9.763125 -14.65 10.52625 -15.5 11.3125 C-18.66071339 15.09278505 -18.58359691 18.58510825 -18.375 23.36328125 C-17.90328269 26.68004356 -16.81823105 29.1968938 -15 32 C-15.928125 31.690625 -15.928125 31.690625 -16.875 31.375 C-17.57625 31.25125 -18.2775 31.1275 -19 31 C-19.66 31.66 -20.32 32.32 -21 33 C-21 32.01 -21 31.02 -21 30 C-21.99 30 -22.98 30 -24 30 C-26.80289185 25.18217787 -26.73612555 20.43080383 -26 15 C-23.4212205 8.57436347 -18.99967605 4.95327743 -13.3125 1.25 C-8.81780789 -0.44611023 -4.74839026 -0.2533726 0 0 Z M-21 27 C-20 30 -20 30 -20 30 Z " fill="#DEEEE7" transform="translate(265,87)"/>
<path d="M0 0 C2.0625 2.3125 2.0625 2.3125 3.0625 8.3125 C-4.8575 8.3125 -12.7775 8.3125 -20.9375 8.3125 C-19.78870623 3.71732491 -18.18120626 1.70707632 -14.9375 -1.6875 C-10.27523481 -4.09901648 -4.30519287 -2.4731959 0 0 Z " fill="#E1EEF8" transform="translate(400.9375,96.6875)"/>
<path d="M0 0 C3.1875 1.625 3.1875 1.625 5 4 C5.33 5.98 5.66 7.96 6 10 C-1.92 10 -9.84 10 -18 10 C-15.9048142 -0.47592898 -9.60301694 -1.42119338 0 0 Z " fill="#E3EFF8" transform="translate(177,95)"/>
<path d="M0 0 C0.99 0 1.98 0 3 0 C3.01981934 1.15000488 3.03963867 2.30000977 3.06005859 3.48486328 C3.13636046 7.76779385 3.22503946 12.05039556 3.31738281 16.33300781 C3.35557122 18.18352751 3.39044151 20.03411887 3.421875 21.88476562 C3.46774641 24.55104107 3.52570359 27.21682748 3.5859375 29.8828125 C3.59748871 30.70492218 3.60903992 31.52703186 3.62094116 32.37405396 C3.73844674 36.98893214 4.4084798 40.62112562 6 45 C6 46.32 6 47.64 6 49 C6.66 49 7.32 49 8 49 C8 49.99 8 50.98 8 52 C7.34 52 6.68 52 6 52 C6 51.34 6 50.68 6 50 C4.68 50 3.36 50 2 50 C2 51.98 2 53.96 2 56 C1.34 56 0.68 56 0 56 C0 37.52 0 19.04 0 0 Z " fill="#5AAA2F" transform="translate(425,72)"/>
<path d="M0 0 C0.66 0 1.32 0 2 0 C6.35518244 8.11194286 9.89286509 15.53563 9 25 C8.0625 27.8125 8.0625 27.8125 6 30 C3.04194783 31.00699648 0.09005163 31.56596759 -3 32 C-3 32.66 -3 33.32 -3 34 C-4.98 34 -6.96 34 -9 34 C-9 32.02 -9 30.04 -9 28 C-5.7 28 -2.4 28 1 28 C2.87178071 24.25643858 3.24942415 23.49193805 2.9765625 19.671875 C2.925 18.87265625 2.8734375 18.0734375 2.8203125 17.25 C2.72363281 16.0125 2.72363281 16.0125 2.625 14.75 C2.56828125 13.90953125 2.5115625 13.0690625 2.453125 12.203125 C2.31209668 10.13470958 2.15738212 8.0672354 2 6 C1.34 6 0.68 6 0 6 C-1 3 -1 3 0 0 Z " fill="#2E74E8" transform="translate(69,98)"/>
<path d="M0 0 C3 1 3 1 4.1875 2.5625 C5 5 5 5 5 13 C-5.56 13 -16.12 13 -27 13 C-27 11.68 -27 10.36 -27 9 C-19.41 8.67 -11.82 8.34 -4 8 C-3.67 6.02 -3.34 4.04 -3 2 C-2.01 2.33 -1.02 2.66 0 3 C0 2.01 0 1.02 0 0 Z " fill="#1367F1" transform="translate(187,97)"/>
<path d="M0 0 C3.45457235 2.26353515 6.39823866 4.78856572 9.265625 7.75390625 C8.935625 8.41390625 8.605625 9.07390625 8.265625 9.75390625 C7.275625 9.42390625 6.285625 9.09390625 5.265625 8.75390625 C5.595625 9.41390625 5.925625 10.07390625 6.265625 10.75390625 C6.33678882 13.12793126 6.34971585 15.50391302 6.328125 17.87890625 C6.31910156 19.16023438 6.31007813 20.4415625 6.30078125 21.76171875 C6.28917969 22.74914062 6.27757812 23.7365625 6.265625 24.75390625 C5.935625 24.75390625 5.605625 24.75390625 5.265625 24.75390625 C5.23984375 23.94566406 5.2140625 23.13742188 5.1875 22.3046875 C4.9113545 15.71427655 4.9113545 15.71427655 2.515625 9.69140625 C1.773125 9.05203125 1.030625 8.41265625 0.265625 7.75390625 C-0.415 7.15578125 -1.095625 6.55765625 -1.796875 5.94140625 C-6.37810154 4.08942105 -10.86148432 4.18406296 -15.734375 4.75390625 C-18.82434333 6.04652994 -18.82434333 6.04652994 -20.734375 7.75390625 C-20.734375 7.09390625 -20.734375 6.43390625 -20.734375 5.75390625 C-21.724375 5.75390625 -22.714375 5.75390625 -23.734375 5.75390625 C-22.5784659 2.28617894 -21.27641106 1.24964343 -18.0859375 -0.4375 C-12.22872733 -2.45152409 -5.66485808 -2.58155675 0 0 Z " fill="#68AC45" transform="translate(454.734375,88.24609375)"/>
<path d="M0 0 C2.16874252 0.50603992 3.99967627 0.99983813 6 2 C7.17942085 5.53826255 7.11289189 8.34148726 7.09765625 12.07421875 C7.0962413 12.7580513 7.09482635 13.44188385 7.09336853 14.1464386 C7.08777876 16.32683722 7.07522822 18.50713251 7.0625 20.6875 C7.05748367 22.16731622 7.052921 23.64713406 7.04882812 25.12695312 C7.03781271 28.75133557 7.02055512 32.3756577 7 36 C5.35 36 3.7 36 2 36 C1.97494385 35.19369141 1.9498877 34.38738281 1.92407227 33.55664062 C1.8073732 29.87096125 1.68498409 26.18549148 1.5625 22.5 C1.52318359 21.2315625 1.48386719 19.963125 1.44335938 18.65625 C1.23078638 12.37717086 0.93384411 6.21516419 0 0 Z " fill="#5FAA38" transform="translate(508,93)"/>
<path d="M0 0 C1.32 0 2.64 0 4 0 C4 0.99 4 1.98 4 3 C4.66 3 5.32 3 6 3 C6.99 6.96 7.98 10.92 9 15 C10.32 15 11.64 15 13 15 C13 15.66 13 16.32 13 17 C13.66 17 14.32 17 15 17 C15 17.99 15 18.98 15 20 C14.34 20 13.68 20 13 20 C13 21.32 13 22.64 13 24 C11.02 24 9.04 24 7 24 C6.67 23.01 6.34 22.02 6 21 C5.34 21 4.68 21 4 21 C3.34 18.03 2.68 15.06 2 12 C1.34 12 0.68 12 0 12 C0 8.04 0 4.08 0 0 Z " fill="#1267F4" transform="translate(118,104)"/>
<path d="M0 0 C1.48592976 5.18399554 0.58447661 9.31563614 -2 14 C-2.33 14.99 -2.66 15.98 -3 17 C-2.67 17.66 -2.34 18.32 -2 19 C-2.28112064 21.00800456 -2.61067967 23.01014051 -3 25 C-2.34 25 -1.68 25 -1 25 C-1.47939368 29.71403788 -1.96834048 33.66579301 -4 38 C-7.3 38 -10.6 38 -14 38 C-14.64910154 36.41800369 -15.29414694 34.83434276 -15.9375 33.25 C-16.29714844 32.36828125 -16.65679687 31.4865625 -17.02734375 30.578125 C-17.85356576 28.38813896 -18.49369943 26.28101729 -19 24 C-18.34 24 -17.68 24 -17 24 C-16.34 26.97 -15.68 29.94 -15 33 C-14.34 33 -13.68 33 -13 33 C-12.67 33.66 -12.34 34.32 -12 35 C-8.97065509 35.65772428 -8.97065509 35.65772428 -6 36 C-6 34.68 -6 33.36 -6 32 C-5.34 32 -4.68 32 -4 32 C-4 31.01 -4 30.02 -4 29 C-4.66 29 -5.32 29 -6 29 C-6 28.34 -6 27.68 -6 27 C-7.65 27.33 -9.3 27.66 -11 28 C-11.33 25.36 -11.66 22.72 -12 20 C-11.01 21.32 -10.02 22.64 -9 24 C-5.58871595 16.11490081 -2.59902652 8.18911149 0 0 Z " fill="#1266F5" transform="translate(137,92)"/>
<path d="M0 0 C0.70640625 0.22816406 1.4128125 0.45632812 2.140625 0.69140625 C3.88883762 1.05429281 5.63893826 1.4081786 7.390625 1.75390625 C8.28265625 1.93050781 9.1746875 2.10710937 10.09375 2.2890625 C10.76921875 2.42183594 11.4446875 2.55460937 12.140625 2.69140625 C11.810625 4.34140625 11.480625 5.99140625 11.140625 7.69140625 C10.47675781 7.74039063 9.81289063 7.789375 9.12890625 7.83984375 C2.37511188 8.288805 2.37511188 8.288805 -3.859375 10.69140625 C-4.189375 11.68140625 -4.519375 12.67140625 -4.859375 13.69140625 C-6.179375 13.03140625 -7.499375 12.37140625 -8.859375 11.69140625 C-8.859375 10.04140625 -8.859375 8.39140625 -8.859375 6.69140625 C-9.519375 6.69140625 -10.179375 6.69140625 -10.859375 6.69140625 C-11.189375 5.37140625 -11.519375 4.05140625 -11.859375 2.69140625 C-11.055 3.06265625 -11.055 3.06265625 -10.234375 3.44140625 C-7.59292449 3.9750959 -7.59292449 3.9750959 -4.859375 1.69140625 C-1.859375 -0.30859375 -1.859375 -0.30859375 0 0 Z " fill="#3074E5" transform="translate(337.859375,87.30859375)"/>
<path d="M0 0 C0.33 0 0.66 0 1 0 C1.33 7.26 1.66 14.52 2 22 C3.32 22 4.64 22 6 22 C6.33 21.34 6.66 20.68 7 20 C7.36836955 24.29764472 6.39180503 26.46012855 4 30 C3.67 30.66 3.34 31.32 3 32 C2.34 32 1.68 32 1 32 C1 39.92 1 47.84 1 56 C0.34 56 -0.32 56 -1 56 C-1.02526563 48.18547248 -1.04283105 40.37095542 -1.05493164 32.55639648 C-1.05997383 29.89558519 -1.06680736 27.23477668 -1.07543945 24.57397461 C-1.08751009 20.75894484 -1.09322929 16.94395156 -1.09765625 13.12890625 C-1.10281754 11.93100967 -1.10797882 10.7331131 -1.11329651 9.49891663 C-1.11337204 8.3978508 -1.11344757 7.29678497 -1.11352539 6.16235352 C-1.115746 5.18750504 -1.11796661 4.21265656 -1.12025452 3.20826721 C-1 1 -1 1 0 0 Z " fill="#58AA31" transform="translate(479,72)"/>
<path d="M0 0 C3.45825936 -0.05898369 6.9163862 -0.09392131 10.375 -0.125 C11.34050781 -0.14175781 12.30601563 -0.15851562 13.30078125 -0.17578125 C19.8008801 -0.21940607 25.67968448 0.53220921 32 2 C34.04042539 2.38169621 36.08183036 2.75827724 38.125 3.125 C39.05570313 3.29257812 39.98640625 3.46015625 40.9453125 3.6328125 C41.96238281 3.81457031 41.96238281 3.81457031 43 4 C39.90226756 4.84062397 37.21667249 5.08935201 34 5 C34.66 5.66 35.32 6.32 36 7 C34.3954444 6.85851011 32.79136233 6.71164314 31.1875 6.5625 C30.29417969 6.48128906 29.40085938 6.40007813 28.48046875 6.31640625 C26 6 26 6 23 5 C20.93637009 4.84970012 18.86876085 4.75155552 16.80078125 4.68359375 C15.59228516 4.64169922 14.38378906 4.59980469 13.13867188 4.55664062 C11.87603516 4.51732422 10.61339844 4.47800781 9.3125 4.4375 C8.03826172 4.39431641 6.76402344 4.35113281 5.45117188 4.30664062 C2.30089148 4.2004514 -0.84946839 4.09840467 -4 4 C-4 3.67 -4 3.34 -4 3 C-1.36 2.67 1.28 2.34 4 2 C2.68 1.34 1.36 0.68 0 0 Z " fill="#4784E2" transform="translate(92,43)"/>
<path d="M0 0 C0 0.99 0 1.98 0 3 C-0.99 3.495 -0.99 3.495 -2 4 C-2.72159424 5.64363134 -3.39351421 7.31050386 -4 9 C-10.7281627 9.22262303 -16.53991163 8.95021536 -23 7 C-22.4296875 5.0390625 -22.4296875 5.0390625 -21 3 C-17.8828125 2.4609375 -17.8828125 2.4609375 -14.125 2.375 C-8.99108995 2.23566632 -4.79862177 0 0 0 Z " fill="#1267F3" transform="translate(407,120)"/>
<path d="M0 0 C0.99 0.33 1.98 0.66 3 1 C2.01 2.485 2.01 2.485 1 4 C0.60986284 5.9896995 0.26797351 7.99019869 0 10 C0.66 10 1.32 10 2 10 C2.36205464 11.95689037 2.71441421 13.91557668 3.0625 15.875 C3.35833984 17.51082031 3.35833984 17.51082031 3.66015625 19.1796875 C4 22 4 22 3 24 C2.34 24 1.68 24 1 24 C1 24.66 1 25.32 1 26 C0.34 26 -0.32 26 -1 26 C-1.33 24.02 -1.66 22.04 -2 20 C-2.66 20 -3.32 20 -4 20 C-4.054138 17.75026553 -4.09285491 15.50015617 -4.125 13.25 C-4.14820313 11.99703125 -4.17140625 10.7440625 -4.1953125 9.453125 C-4.01537302 6.27179508 -3.68998582 4.63478104 -2 2 C-1.34 2 -0.68 2 0 2 C0 1.34 0 0.68 0 0 Z " fill="#1167F5" transform="translate(155,95)"/>
<path d="M0 0 C0.66 0 1.32 0 2 0 C2.09796875 0.556875 2.1959375 1.11375 2.296875 1.6875 C3.36099942 7.11820395 4.73019793 12.43856794 8 17 C8.99 17.33 9.98 17.66 11 18 C11.66 17.67 12.32 17.34 13 17 C15.55157655 16.9283265 18.07472971 16.90691558 20.625 16.9375 C21.68460937 16.94426758 21.68460937 16.94426758 22.765625 16.95117188 C24.51045275 16.96296125 26.255237 16.98089676 28 17 C28.33 17.66 28.66 18.32 29 19 C28.13117188 18.96519531 27.26234375 18.93039063 26.3671875 18.89453125 C17.7876474 18.67402136 17.7876474 18.67402136 10 22 C8.68 22 7.36 22 6 22 C1.39498359 17.2407486 -1.01575808 11.45225262 -2 5 C-1.31637168 1.31637168 -1.31637168 1.31637168 0 0 Z " fill="#3673E2" transform="translate(239,69)"/>
<path d="M0 0 C0 0.99 0 1.98 0 3 C0.94875 2.814375 1.8975 2.62875 2.875 2.4375 C6 2 6 2 8 3 C8 3.66 8 4.32 8 5 C6.02 5 4.04 5 2 5 C2 5.66 2 6.32 2 7 C0.8553125 7.680625 0.8553125 7.680625 -0.3125 8.375 C-3.05572034 10.03369137 -4.26510766 11.35635452 -6 14 C-6.99 15.485 -6.99 15.485 -8 17 C-8.99 14.69 -9.98 12.38 -11 10 C-9.68 8.35 -8.36 6.7 -7 5 C-7.66 4.67 -8.32 4.34 -9 4 C-8 2 -8 2 -5.0625 0.875 C-2 0 -2 0 0 0 Z " fill="#1767F0" transform="translate(166,88)"/>
<path d="M0 0 C1.5 1.375 1.5 1.375 3 3 C3 3.66 3 4.32 3 5 C8.87883349 7.61281488 14.70731728 7.18328202 21 7 C20.67 7.99 20.34 8.98 20 10 C21.65 10 23.3 10 25 10 C21.12460404 13.37649441 18.50916336 13.3911425 13.53515625 13.22265625 C8.75573243 12.80289175 5.21500503 12.05923515 1.5625 8.875 C1.046875 8.25625 0.53125 7.6375 0 7 C0.66 7 1.32 7 2 7 C2 6.01 2 5.02 2 4 C1.34 4 0.68 4 0 4 C0 2.68 0 1.36 0 0 Z " fill="#61AB3C" transform="translate(431,117)"/>
<path d="M0 0 C5.25803515 2.70413236 9.09608181 6.28824543 11 12 C11 15.63 11 19.26 11 23 C0.11 23 -10.78 23 -22 23 C-22.33 23.66 -22.66 24.32 -23 25 C-23 24.01 -23 23.02 -23 22 C-12.11 21.67 -1.22 21.34 10 21 C9.51263457 14.37843275 9.51263457 14.37843275 7 9 C6.34 8.67 5.68 8.34 5 8 C5 8.99 5 9.98 5 11 C4.01 10.67 3.02 10.34 2 10 C2 7.36 2 4.72 2 2 C1.34 2 0.68 2 0 2 C0 1.34 0 0.68 0 0 Z M0 10 C0.66 10 1.32 10 2 10 C2 11.98 2 13.96 2 16 C0 12.25 0 12.25 0 10 Z " fill="#528AE7" transform="translate(182,89)"/>
<path d="M0 0 C9.25720542 -1.07206607 9.25720542 -1.07206607 13.4765625 1.5234375 C15.4356288 3.26878748 17.24891972 5.0475923 19 7 C19.33 7.33 19.66 7.66 20 8 C20.36090226 15.45864662 20.36090226 15.45864662 18 19 C16.68 18.67 15.36 18.34 14 18 C14.33 17.67 14.66 17.34 15 17 C15.35016244 13.99860768 15.55296638 11.9071797 15 9 C12.23688578 5.58246399 10.66071565 4.33115461 6.375 3.4765625 C3.909206 3.21737393 1.4781156 3.05387208 -1 3 C-0.67 2.01 -0.34 1.02 0 0 Z " fill="#3878E0" transform="translate(254,39)"/>
<path d="M0 0 C0.66 0.33 1.32 0.66 2 1 C-0.02491506 6.18884483 -2.8994414 8.86224117 -7.05859375 12.33203125 C-9.40375257 14.34688601 -11.28449846 16.42674769 -13 19 C-13 19.99 -13 20.98 -13 22 C-13.66 22 -14.32 22 -15 22 C-15.33 21.01 -15.66 20.02 -16 19 C-16.99 20.32 -17.98 21.64 -19 23 C-20.32 22.67 -21.64 22.34 -23 22 C-22.071875 21.87625 -22.071875 21.87625 -21.125 21.75 C-18.8591317 21.21989641 -18.8591317 21.21989641 -18.0546875 19.21875 C-17.70664062 18.4865625 -17.35859375 17.754375 -17 17 C-12.36636854 9.9968979 -6.72267954 4.96423218 0 0 Z " fill="#4482DF" transform="translate(65,50)"/>
<path d="M0 0 C0.66 0.33 1.32 0.66 2 1 C1.63919719 3.61582036 1.23753655 4.77444924 -0.703125 6.6171875 C-3.51142436 8.30789834 -5.24321504 8.37065687 -8.5 8.3125 C-9.4384375 8.30863281 -10.376875 8.30476562 -11.34375 8.30078125 C-14.02087334 7.9976364 -15.69965635 7.36176004 -18 6 C-17.67 4.68 -17.34 3.36 -17 2 C-15.85660156 1.93941406 -14.71320313 1.87882812 -13.53515625 1.81640625 C-12.04425695 1.73201572 -10.55337225 1.64736698 -9.0625 1.5625 C-8.30775391 1.52318359 -7.55300781 1.48386719 -6.77539062 1.44335938 C-3.08055813 1.55961976 -3.08055813 1.55961976 0 0 Z " fill="#1168F4" transform="translate(181,121)"/>
<path d="M0 0 C7.3396953 -0.76146695 13.45456218 -1.22674438 19.5625 3.375 C24.63886417 8.11684264 28.39437955 13.4578466 29.328125 20.4609375 C29.4066449 24.40001897 28.98666854 28.17665943 28 32 C27.01 31.67 26.02 31.34 25 31 C25.04640625 29.99839844 25.0928125 28.99679688 25.140625 27.96484375 C25.66403661 17.73549188 25.66403661 17.73549188 21 9 C18.92491684 7.53080944 16.85143712 6.24173554 14.609375 5.04296875 C14.07828125 4.69878906 13.5471875 4.35460937 13 4 C13 3.34 13 2.68 13 2 C8.71 1.67 4.42 1.34 0 1 C0 0.67 0 0.34 0 0 Z " fill="#5D8CD7" transform="translate(254,85)"/>
<path d="M0 0 C0.33 0 0.66 0 1 0 C1.66 5.61 2.32 11.22 3 17 C1.68 17.33 0.36 17.66 -1 18 C-1.474375 18.94875 -1.94875 19.8975 -2.4375 20.875 C-4.22927875 24.4585575 -5.34142215 25.46850229 -9 27 C-12.3125 27.1875 -12.3125 27.1875 -15 27 C-12.27088697 25.18059131 -9.53319456 23.68580711 -6.62109375 22.1953125 C-4.5258892 20.65041469 -3.85275211 19.45767531 -3 17 C-2.97146353 14.39877587 -2.97146353 14.39877587 -3.375 11.75 C-3.48585937 10.85796875 -3.59671875 9.9659375 -3.7109375 9.046875 C-3.80632812 8.37140625 -3.90171875 7.6959375 -4 7 C-3.01 7 -2.02 7 -1 7 C-0.67 4.69 -0.34 2.38 0 0 Z " fill="#DBEBF6" transform="translate(236,103)"/>
<path d="M0 0 C0.85271484 0.23783203 0.85271484 0.23783203 1.72265625 0.48046875 C1.39265625 2.13046875 1.06265625 3.78046875 0.72265625 5.48046875 C-1.25643773 5.50733428 -3.23563346 5.5268025 -5.21484375 5.54296875 C-6.31699219 5.55457031 -7.41914063 5.56617187 -8.5546875 5.578125 C-11.27734375 5.48046875 -11.27734375 5.48046875 -12.27734375 4.48046875 C-12.60734375 5.14046875 -12.93734375 5.80046875 -13.27734375 6.48046875 C-14.26734375 6.15046875 -15.25734375 5.82046875 -16.27734375 5.48046875 C-16.27734375 3.48046875 -16.27734375 3.48046875 -14.33984375 1.35546875 C-9.72795173 -1.46813861 -5.19454754 -1.185034 0 0 Z " fill="#1068F1" transform="translate(348.27734375,89.51953125)"/>
<path d="M0 0 C0 0.33 0 0.66 0 1 C-2.97 1 -5.94 1 -9 1 C-9.33 1.99 -9.66 2.98 -10 4 C-11.65204456 4.70211894 -13.31923769 5.36971413 -15 6 C-15.33 6.66 -15.66 7.32 -16 8 C-15.01 8.33 -14.02 8.66 -13 9 C-14.32 10.32 -15.64 11.64 -17 13 C-18.32 12.34 -19.64 11.68 -21 11 C-21.33 11.66 -21.66 12.32 -22 13 C-22.66 13 -23.32 13 -24 13 C-22.3023245 7.05813574 -18.15019859 4.41717634 -13.25 1.1875 C-8.78877616 -0.44256256 -4.69789433 -0.25067816 0 0 Z " fill="#D8E9F2" transform="translate(265,87)"/>
<path d="M0 0 C7.2484945 -0.41640288 13.16914355 0.55833216 20 3 C19.25561083 6.1385057 18.24162641 9.02009661 17 12 C16.236875 11.690625 15.47375 11.38125 14.6875 11.0625 C9.82685159 9.66197419 5.03141827 9.34020266 0 9 C0 8.67 0 8.34 0 8 C4.29 8 8.58 8 13 8 C13 7.34 13 6.68 13 6 C13.99 6 14.98 6 16 6 C16 5.34 16 4.68 16 4 C15.01 4 14.02 4 13 4 C13 3.34 13 2.68 13 2 C8.71 1.67 4.42 1.34 0 1 C0 0.67 0 0.34 0 0 Z " fill="#4781DD" transform="translate(212,86)"/>
<path d="M0 0 C0 0.33 0 0.66 0 1 C-1.87945312 0.98259766 -1.87945312 0.98259766 -3.796875 0.96484375 C-5.44791517 0.95546284 -7.09895696 0.94636296 -8.75 0.9375 C-9.575 0.92912109 -10.4 0.92074219 -11.25 0.91210938 C-12.04921875 0.90888672 -12.8484375 0.90566406 -13.671875 0.90234375 C-14.4050293 0.89710693 -15.13818359 0.89187012 -15.89355469 0.88647461 C-18.0461849 1.0024891 -19.9314135 1.40926729 -22 2 C-22 2.66 -22 3.32 -22 4 C-22.99 4 -23.98 4 -25 4 C-25 4.66 -25 5.32 -25 6 C-25.66 6 -26.32 6 -27 6 C-29.56525333 10.94727428 -31.21989169 15.20850176 -31.625 20.8125 C-31.69976562 21.78832031 -31.77453125 22.76414062 -31.8515625 23.76953125 C-31.90054687 24.50558594 -31.94953125 25.24164063 -32 26 C-32.33 26 -32.66 26 -33 26 C-33.36797946 17.57735905 -33.05344685 12.42223337 -28.1875 5.375 C-20.26745541 -3.22390556 -10.49606134 -3.49868711 0 0 Z " fill="#5084DE" transform="translate(403,88)"/>
<path d="M0 0 C1.4540625 0.0309375 1.4540625 0.0309375 2.9375 0.0625 C3.2675 0.7225 3.5975 1.3825 3.9375 2.0625 C1.9575 2.0625 -0.0225 2.0625 -2.0625 2.0625 C-2.0625 21.8625 -2.0625 41.6625 -2.0625 62.0625 C-2.3925 62.0625 -2.7225 62.0625 -3.0625 62.0625 C-3.21610551 54.12645981 -3.36428712 46.19034515 -3.5054636 38.25407505 C-3.57118325 34.56931052 -3.63880074 30.88460084 -3.71069336 27.19995117 C-3.77995021 23.64686412 -3.84430302 20.09371957 -3.90519524 16.54047966 C-3.92934925 15.18201384 -3.95529758 13.82357875 -3.98303413 12.46518135 C-4.02145576 10.56875504 -4.05301816 8.67219346 -4.08422852 6.77563477 C-4.11420677 5.15347801 -4.11420677 5.15347801 -4.14479065 3.49855042 C-4.021566 -0.14926929 -3.71464113 0.075809 0 0 Z " fill="#DEF3D9" transform="translate(478.0625,67.9375)"/>
<path d="M0 0 C0.66 0.66 1.32 1.32 2 2 C1.14535156 1.98839844 0.29070312 1.97679688 -0.58984375 1.96484375 C-1.69457031 1.95582031 -2.79929687 1.94679688 -3.9375 1.9375 C-5.59072266 1.92009766 -5.59072266 1.92009766 -7.27734375 1.90234375 C-9.91447634 1.68737429 -9.91447634 1.68737429 -11 3 C-8.36 3.33 -5.72 3.66 -3 4 C-3 4.33 -3 4.66 -3 5 C-3.66386719 5.03738281 -4.32773437 5.07476562 -5.01171875 5.11328125 C-10.07036379 5.4899103 -13.84180819 5.81205295 -18 9 C-18 8.34 -18 7.68 -18 7 C-18.99 7 -19.98 7 -21 7 C-19.84622615 3.53867845 -18.53871207 2.5147001 -15.37890625 0.79296875 C-10.47182725 -0.84272425 -5.09207372 -0.6124732 0 0 Z " fill="#76B158" transform="translate(452,87)"/>
<path d="M0 0 C3.5 0.3125 3.5 0.3125 7 1 C7.33 1.66 7.66 2.32 8 3 C5.69 2.67 3.38 2.34 1 2 C0.34 3.65 -0.32 5.3 -1 7 C0.98 6.34 2.96 5.68 5 5 C5.33 5.66 5.66 6.32 6 7 C6.99 7.33 7.98 7.66 9 8 C9 8.66 9 9.32 9 10 C12.63 10.33 16.26 10.66 20 11 C20 11.33 20 11.66 20 12 C11.71106811 12.47617268 4.04407025 11.69604683 -3 7 C-1.125 1.125 -1.125 1.125 0 0 Z " fill="#4983DC" transform="translate(199,119)"/>
<path d="M0 0 C2.475 0.99 2.475 0.99 5 2 C4.67 4.97 4.34 7.94 4 11 C2.35 11.33 0.7 11.66 -1 12 C-1 10.68 -1 9.36 -1 8 C-1.66 8 -2.32 8 -3 8 C-3.36923077 3.44615385 -3.36923077 3.44615385 -1.5 1.1875 C-1.005 0.795625 -0.51 0.40375 0 0 Z " fill="#1268F2" transform="translate(92,116)"/>
<path d="M0 0 C3.3 0 6.6 0 10 0 C10 0.33 10 0.66 10 1 C7.03 1 4.06 1 1 1 C1.99 4.63 2.98 8.26 4 12 C3.01 12 2.02 12 1 12 C0.87625 12.639375 0.7525 13.27875 0.625 13.9375 C0.41875 14.618125 0.2125 15.29875 0 16 C-0.66 16.33 -1.32 16.66 -2 17 C-5.125 10.375 -5.125 10.375 -4 7 C-3.67 7.99 -3.34 8.98 -3 10 C-2.34 10 -1.68 10 -1 10 C-0.67 6.7 -0.34 3.4 0 0 Z " fill="#DEEEF8" transform="translate(75,86)"/>
<path d="M0 0 C1.26364022 4.4084892 0.88282481 7.94007544 -0.9375 12.1875 C-1.89909227 13.82786328 -2.94527417 15.41791125 -4 17 C-4.74549605 19.29793013 -5.38816201 21.61078713 -6.0234375 23.94140625 C-7.23863709 26.503047 -8.40144299 27.01083735 -11 28 C-11.33 25.36 -11.66 22.72 -12 20 C-11.01 21.32 -10.02 22.64 -9 24 C-5.58871595 16.11490081 -2.59902652 8.18911149 0 0 Z " fill="#4582E1" transform="translate(137,92)"/>
<path d="M0 0 C0.66 0.33 1.32 0.66 2 1 C2 2.32 2 3.64 2 5 C-0.35438733 6.42944945 -1.48032433 7.08661261 -4.25 6.625 C-4.8275 6.41875 -5.405 6.2125 -6 6 C-5.67 6.99 -5.34 7.98 -5 9 C-6.98 9 -8.96 9 -11 9 C-11 7.02 -11 5.04 -11 3 C-7.7 3 -4.4 3 -1 3 C-0.67 2.01 -0.34 1.02 0 0 Z " fill="#1167F4" transform="translate(71,123)"/>
<path d="M0 0 C2.19505282 0.92050602 3.38616281 2.02846223 4.9375 3.8125 C3.54417426 7.17970387 1.9585714 8.7984524 -1.0625 10.8125 C-1.7225 10.4825 -2.3825 10.1525 -3.0625 9.8125 C-2.4025 8.1625 -1.7425 6.5125 -1.0625 4.8125 C-0.4025 4.8125 0.2575 4.8125 0.9375 4.8125 C0.9375 3.8225 0.9375 2.8325 0.9375 1.8125 C0.195 2.1425 -0.5475 2.4725 -1.3125 2.8125 C-6.5746552 4.21574139 -11.6482837 3.97019562 -17.0625 3.8125 C-17.0625 3.4825 -17.0625 3.1525 -17.0625 2.8125 C-16.31484375 2.76351562 -15.5671875 2.71453125 -14.796875 2.6640625 C-13.81203125 2.58929688 -12.8271875 2.51453125 -11.8125 2.4375 C-10.35070312 2.33308594 -10.35070312 2.33308594 -8.859375 2.2265625 C-5.63993552 1.74994157 -3.16451692 -0.28768336 0 0 Z " fill="#4883E1" transform="translate(406.0625,118.1875)"/>
<path d="M0 0 C0.33 0 0.66 0 1 0 C1.2475 0.928125 1.495 1.85625 1.75 2.8125 C3.06454245 6.16458325 3.97963384 7.1877803 7 9 C6.38125 9.103125 5.7625 9.20625 5.125 9.3125 C2.63473516 9.87525373 2.63473516 9.87525373 1 13 C1 13.66 1 14.32 1 15 C1.99 15 2.98 15 4 15 C4 15.66 4 16.32 4 17 C-1.01656959 15.5666944 -3.01452882 13.09436048 -6 9 C-6 8.34 -6 7.68 -6 7 C-5.34 7 -4.68 7 -4 7 C-4 7.99 -4 8.98 -4 10 C-3.01 10 -2.02 10 -1 10 C-0.67 6.7 -0.34 3.4 0 0 Z " fill="#2970E4" transform="translate(379,111)"/>
<path d="M0 0 C-1.52994792 1.23697917 -3.05989583 2.47395833 -4.58984375 3.7109375 C-6.6782988 5.62005153 -6.98311783 6.78508859 -7.20532227 9.61376953 C-7.24197998 10.69255371 -7.2786377 11.77133789 -7.31640625 12.8828125 C-7.35830078 14.04941406 -7.40019531 15.21601562 -7.44335938 16.41796875 C-7.50233398 18.25294922 -7.50233398 18.25294922 -7.5625 20.125 C-7.60568359 21.35605469 -7.64886719 22.58710937 -7.69335938 23.85546875 C-7.79968704 26.90352853 -7.90171781 29.9516719 -8 33 C-10.64 33 -13.28 33 -16 33 C-16 32.67 -16 32.34 -16 32 C-13.69 32 -11.38 32 -9 32 C-9.01047363 31.24380371 -9.02094727 30.48760742 -9.03173828 29.70849609 C-9.07345416 26.26403155 -9.09937583 22.8196203 -9.125 19.375 C-9.14175781 18.18519531 -9.15851563 16.99539062 -9.17578125 15.76953125 C-9.18222656 14.61582031 -9.18867188 13.46210937 -9.1953125 12.2734375 C-9.20578613 11.21560059 -9.21625977 10.15776367 -9.22705078 9.06787109 C-8.97853618 5.70998451 -8.35635289 3.08180057 -7 0 C-3.86650268 -1.04449911 -3.01031744 -0.93423645 0 0 Z " fill="#2068E4" transform="translate(308,96)"/>
<path d="M0 0 C3.63 0 7.26 0 11 0 C11 0.66 11 1.32 11 2 C11.99 2 12.98 2 14 2 C14 2.66 14 3.32 14 4 C13.01 4 12.02 4 11 4 C11 4.66 11 5.32 11 6 C8.03 5.67 5.06 5.34 2 5 C2.33 4.34 2.66 3.68 3 3 C2.01 2.67 1.02 2.34 0 2 C0 1.34 0 0.68 0 0 Z " fill="#1068F4" transform="translate(214,88)"/>
<path d="M0 0 C2.8125 0.5 2.8125 0.5 6 2 C10.10363125 9.52332396 9.33750085 17.68485832 9.1875 26 C9.17242741 27.45701743 9.15874355 28.91404993 9.14648438 30.37109375 C9.11367903 33.91437925 9.06203907 37.45709171 9 41 C8.67 41 8.34 41 8 41 C7.98541748 40.19892822 7.97083496 39.39785645 7.95581055 38.57250977 C7.88080584 34.90204954 7.78431792 31.23244705 7.6875 27.5625 C7.66494141 26.30244141 7.64238281 25.04238281 7.61914062 23.74414062 C7.31917294 11.74289229 7.31917294 11.74289229 1.8125 1.4375 C1.214375 0.963125 0.61625 0.48875 0 0 Z " fill="#F2FBEC" transform="translate(508,89)"/>
<path d="M0 0 C1.55078125 1.14453125 1.55078125 1.14453125 3 3 C2.85546875 5.69921875 2.85546875 5.69921875 2.1875 8.6875 C1.97480469 9.68136719 1.76210937 10.67523438 1.54296875 11.69921875 C1.36378906 12.45847656 1.18460938 13.21773437 1 14 C-0.32 13.67 -1.64 13.34 -3 13 C-3 9.7 -3 6.4 -3 3 C-2.34 3 -1.68 3 -1 3 C-0.67 2.01 -0.34 1.02 0 0 Z " fill="#F4FBEC" transform="translate(244,97)"/>
<path d="M0 0 C0.99 0.33 1.98 0.66 3 1 C1.76302083 2.43229167 0.52604167 3.86458333 -0.7109375 5.296875 C-3.90637791 9.5187296 -4.3311208 12.96017442 -4.625 18.25 C-4.69976562 19.51328125 -4.77453125 20.7765625 -4.8515625 22.078125 C-4.90054688 23.04234375 -4.94953125 24.0065625 -5 25 C-7.9896111 20.51558336 -7.59542649 16.25840503 -7 11 C-5.51870348 6.52692232 -3.42644709 3.22027119 0 0 Z " fill="#4C7FCE" transform="translate(244,91)"/>
<path d="M0 0 C2 0 2 0 3.4375 1.375 C3.953125 1.91125 4.46875 2.4475 5 3 C5.99 3.66 6.98 4.32 8 5 C7.38125 5.680625 6.7625 6.36125 6.125 7.0625 C2.21157543 12.47223396 1.6810417 18.53010387 1 25 C0.67 25 0.34 25 0 25 C-0.24091535 17.7725395 0.65504172 11.09705662 2 4 C1.01 4.33 0.02 4.66 -1 5 C-0.67 3.35 -0.34 1.7 0 0 Z " fill="#D8E9F6" transform="translate(148,87)"/>
<path d="M0 0 C1.05703125 0.07863281 2.1140625 0.15726562 3.203125 0.23828125 C4.46382813 0.46064453 4.46382813 0.46064453 5.75 0.6875 C6.08 1.3475 6.41 2.0075 6.75 2.6875 C6.08613281 2.65269531 5.42226563 2.61789063 4.73828125 2.58203125 C-0.58026679 2.41898087 -3.79334537 2.48427948 -8.25 5.6875 C-10.25 4.6875 -10.25 4.6875 -12.25 3.6875 C-12.58 4.3475 -12.91 5.0075 -13.25 5.6875 C-14.57 5.3575 -15.89 5.0275 -17.25 4.6875 C-11.24750903 0.36012279 -7.32045597 -0.60402777 0 0 Z " fill="#3577E0" transform="translate(317.25,86.3125)"/>
<path d="M0 0 C0.66 0.66 1.32 1.32 2 2 C0.02 2.33 -1.96 2.66 -4 3 C-4.33 3.99 -4.66 4.98 -5 6 C-5.66 6 -6.32 6 -7 6 C-7.99 6.5259375 -7.99 6.5259375 -9 7.0625 C-9.66 7.371875 -10.32 7.68125 -11 8 C-11.66 7.67 -12.32 7.34 -13 7 C-12.69611836 4.06247746 -12.19330344 3.15919107 -9.875 1.25 C-6.35343532 -0.28111508 -3.80384943 -0.35885372 0 0 Z " fill="#DFEFF7" transform="translate(346,95)"/>
<path d="M0 0 C0.33 1.32 0.66 2.64 1 4 C1.886875 4.061875 2.77375 4.12375 3.6875 4.1875 C7.74081992 5.18171055 9.29831749 6.90101124 12 10 C11.01 10.495 11.01 10.495 10 11 C10 10.34 10 9.68 10 9 C7.525 8.505 7.525 8.505 5 8 C5 7.34 5 6.68 5 6 C-2.04207705 6.7187807 -2.04207705 6.7187807 -9 8 C-8.34 7.67 -7.68 7.34 -7 7 C-7 6.34 -7 5.68 -7 5 C-6.401875 4.9175 -5.80375 4.835 -5.1875 4.75 C-2.4033704 3.79544128 -1.56688858 2.42867729 0 0 Z " fill="#1468ED" transform="translate(49,68)"/>
<path d="M0 0 C7.23449363 -0.61309268 7.23449363 -0.61309268 10.609375 2.08984375 C13.58015644 5.70623619 13.58664982 7.42745828 13.48828125 12.05078125 C13.47766914 13.03899117 13.47766914 13.03899117 13.46684265 14.04716492 C13.43900979 16.13680034 13.37630819 18.22368476 13.3125 20.3125 C13.28740205 21.73498714 13.26459148 23.15751659 13.24414062 24.58007812 C13.18922446 28.05426861 13.10303685 31.5268655 13 35 C12.67 35 12.34 35 12 35 C11.67 24.77 11.34 14.54 11 4 C9.68 3.67 8.36 3.34 7 3 C7 2.34 7 1.68 7 1 C4.69 1 2.38 1 0 1 C0 0.67 0 0.34 0 0 Z " fill="#F1FBFE" transform="translate(308,95)"/>
<path d="M0 0 C5.48780488 0.48780488 5.48780488 0.48780488 7.875 2.875 C9 5 9 5 9 8 C8.01 8 7.02 8 6 8 C6 8.66 6 9.32 6 10 C2.27566618 8.7874262 -1.37802806 7.49140021 -5 6 C-5 5.67 -5 5.34 -5 5 C-3.02 5 -1.04 5 1 5 C1.33 5.99 1.66 6.98 2 8 C2.99 8 3.98 8 5 8 C4.45773019 4.20411134 2.79872437 2.52788007 0 0 Z " fill="#216CE7" transform="translate(400,89)"/>
<path d="M0 0 C0.99 0.33 1.98 0.66 3 1 C-1.36336397 5.60577308 -3.60426977 7.73380775 -9.9375 8.4375 C-13.55637541 8.37662172 -13.99101471 8.00748774 -17 5.5 C-17.66 4.675 -18.32 3.85 -19 3 C-18.2575 3.495 -18.2575 3.495 -17.5 4 C-13.98731658 5.40507337 -10.73847107 5.53957314 -7 5 C-4.73545927 3.53228729 -4.73545927 3.53228729 -3 2 C-2.01 2.33 -1.02 2.66 0 3 C0 2.01 0 1.02 0 0 Z " fill="#78B15A" transform="translate(269,115)"/>
<path d="M0 0 C0.66 0 1.32 0 2 0 C4.11161731 9.41002278 4.11161731 9.41002278 5 14 C2 14 2 14 0 13 C-2.42991928 5.19868019 -2.42991928 5.19868019 -1 1 C-0.67 0.67 -0.34 0.34 0 0 Z " fill="#3B7ADE" transform="translate(239,69)"/>
<path d="M0 0 C0.66 0 1.32 0 2 0 C2.66 2.97 3.32 5.94 4 9 C4.66 9 5.32 9 6 9 C6.33 9.66 6.66 10.32 7 11 C9.32156597 11.40729228 11.6568787 11.74438677 14 12 C14 11.01 14 10.02 14 9 C14.66 9 15.32 9 16 9 C15.67 10.65 15.34 12.3 15 14 C11.7 14 8.4 14 5 14 C4.35089846 12.41800369 3.70585306 10.83434276 3.0625 9.25 C2.70285156 8.36828125 2.34320313 7.4865625 1.97265625 6.578125 C1.14643424 4.38813896 0.50630057 2.28101729 0 0 Z " fill="#3B79DB" transform="translate(118,116)"/>
<path d="M0 0 C3.57011026 3.732388 4.10913442 8.0949989 5 13 C5.66 13 6.32 13 7 13 C7.66 10.03 8.32 7.06 9 4 C10.10191901 8.40767604 9.58706842 9.8922935 8 14 C6.35 13.67 4.7 13.34 3 13 C3 12.01 3 11.02 3 10 C2.34 10 1.68 10 1 10 C-0.1577506 6.52674819 -0.06866652 3.63932552 0 0 Z " fill="#3979E1" transform="translate(90,104)"/>
<path d="M0 0 C1.63001953 0.01353516 1.63001953 0.01353516 3.29296875 0.02734375 C4.12441406 0.03894531 4.95585937 0.05054687 5.8125 0.0625 C5.8125 0.7225 5.8125 1.3825 5.8125 2.0625 C4.58273437 2.15337891 4.58273437 2.15337891 3.328125 2.24609375 C1.71164062 2.37177734 1.71164062 2.37177734 0.0625 2.5 C-1.53851563 2.62181641 -1.53851563 2.62181641 -3.171875 2.74609375 C-5.62429962 3.00340773 -7.82671291 3.38062218 -10.1875 4.0625 C-10.1875 4.7225 -10.1875 5.3825 -10.1875 6.0625 C-8.8675 6.3925 -7.5475 6.7225 -6.1875 7.0625 C-7.8375 7.7225 -9.4875 8.3825 -11.1875 9.0625 C-11.875 6.75 -11.875 6.75 -12.1875 4.0625 C-9.08535466 -0.28050347 -4.94579389 -0.05318058 0 0 Z " fill="#7BB45D" transform="translate(497.1875,86.9375)"/>
<path d="M0 0 C0.33 1.32 0.66 2.64 1 4 C1.66 4 2.32 4 3 4 C3.29296875 10.0546875 3.29296875 10.0546875 3 12 C2.01 12.66 1.02 13.32 0 14 C-2 12 -2 12 -2.01171875 9.6875 C-1.90472656 8.800625 -1.79773438 7.91375 -1.6875 7 C-1.58824219 6.113125 -1.48898438 5.22625 -1.38671875 4.3125 C-1 2 -1 2 0 0 Z " fill="#1168F5" transform="translate(87,99)"/>
<path d="M0 0 C1.02802734 0.00966797 2.05605469 0.01933594 3.11523438 0.02929688 C4.72301758 0.06700195 4.72301758 0.06700195 6.36328125 0.10546875 C7.44673828 0.11900391 8.53019531 0.13253906 9.64648438 0.14648438 C12.3234153 0.18186232 14.99934963 0.23122686 17.67578125 0.29296875 C17.67578125 0.62296875 17.67578125 0.95296875 17.67578125 1.29296875 C14.65540036 1.63091346 11.63458369 1.96345308 8.61328125 2.29296875 C7.76572266 2.38835938 6.91816406 2.48375 6.04492188 2.58203125 C1.22105536 3.10353033 -3.47258139 3.39829602 -8.32421875 3.29296875 C-5.79060787 0.07680384 -4.00404798 -0.06636544 0 0 Z " fill="#1A66E6" transform="translate(89.32421875,43.70703125)"/>
<path d="M0 0 C1.98 0 3.96 0 6 0 C7.61949011 2.57213134 8.04408751 3.67669159 7.625 6.75 C7.41875 7.4925 7.2125 8.235 7 9 C3.85069107 10.04976964 1.61185544 10.10131595 -1.6875 10.0625 C-2.68136719 10.05347656 -3.67523438 10.04445313 -4.69921875 10.03515625 C-5.83810547 10.01775391 -5.83810547 10.01775391 -7 10 C-7 9.67 -7 9.34 -7 9 C-6.37351563 8.93941406 -5.74703125 8.87882812 -5.1015625 8.81640625 C-4.28429687 8.73261719 -3.46703125 8.64882812 -2.625 8.5625 C-1.81289062 8.48128906 -1.00078125 8.40007812 -0.1640625 8.31640625 C2.04272805 8.10909886 2.04272805 8.10909886 4 7 C4.65555119 4.47266765 4.65555119 4.47266765 5 2 C3.35 1.67 1.7 1.34 0 1 C0 0.67 0 0.34 0 0 Z " fill="#4280E3" transform="translate(218,113)"/>
<path d="M0 0 C0 0.66 0 1.32 0 2 C0.804375 1.67 1.60875 1.34 2.4375 1 C6.73804795 -0.20717135 10.56966181 -0.17721353 15 0 C15 0.33 15 0.66 15 1 C14.10796875 1.19335938 13.2159375 1.38671875 12.296875 1.5859375 C11.12640625 1.84632812 9.9559375 2.10671875 8.75 2.375 C7.58984375 2.63023438 6.4296875 2.88546875 5.234375 3.1484375 C2.53947599 3.85796405 0.40474168 4.63096389 -2 6 C-2 4.68 -2 3.36 -2 2 C-4.97 2 -7.94 2 -11 2 C-11 1.67 -11 1.34 -11 1 C-9.54182203 0.83197949 -8.0834516 0.66562857 -6.625 0.5 C-5.81289063 0.4071875 -5.00078125 0.314375 -4.1640625 0.21875 C-2 0 -2 0 0 0 Z " fill="#CFE7F9" transform="translate(302,85)"/>
<path d="M0 0 C10.89 0 21.78 0 33 0 C33 0.33 33 0.66 33 1 C23.1 1.33 13.2 1.66 3 2 C2.67 3.32 2.34 4.64 2 6 C0 3 0 3 0 0 Z " fill="#E3EFFB" transform="translate(160,112)"/>
<path d="M0 0 C0.33 1.32 0.66 2.64 1 4 C-5.84659575 8.29590321 -11.97640398 8.94395247 -20 8 C-20.99 7.34 -21.98 6.68 -23 6 C-22.09378906 6.06960937 -21.18757813 6.13921875 -20.25390625 6.2109375 C-11.64976543 6.59334376 -6.50900571 5.78578285 0 0 Z " fill="#D2EBC4" transform="translate(461,123)"/>
<path d="M0 0 C1.03253906 0.02707031 1.03253906 0.02707031 2.0859375 0.0546875 C3.7662381 0.10136252 5.44581163 0.17309061 7.125 0.25 C7.125 0.58 7.125 0.91 7.125 1.25 C5.4234375 1.4665625 5.4234375 1.4665625 3.6875 1.6875 C0.31722799 1.86171478 0.31722799 1.86171478 -0.875 3.25 C-2.39428038 3.32179964 -3.91667482 3.33392007 -5.4375 3.3125 C-6.26378906 3.30347656 -7.09007812 3.29445313 -7.94140625 3.28515625 C-8.57949219 3.27355469 -9.21757812 3.26195313 -9.875 3.25 C-9.875 3.91 -9.875 4.57 -9.875 5.25 C-11.195 4.92 -12.515 4.59 -13.875 4.25 C-9.23919849 0.58179569 -5.95372008 -0.29999365 0 0 Z " fill="#186AEB" transform="translate(213.875,86.75)"/>
<path d="M0 0 C1.16015625 0.01160156 1.16015625 0.01160156 2.34375 0.0234375 C3.1171875 0.01570313 3.890625 0.00796875 4.6875 0 C7.30863897 0.4843409 8.21050363 1.33594048 9.84375 3.3984375 C9.84375 3.7284375 9.84375 4.0584375 9.84375 4.3984375 C4.89375 4.0684375 -0.05625 3.7384375 -5.15625 3.3984375 C-2.15625 0.3984375 -2.15625 0.3984375 0 0 Z " fill="#5AAA30" transform="translate(444.15625,87.6015625)"/>
<path d="M0 0 C1.65 0 3.3 0 5 0 C4.67 4.62 4.34 9.24 4 14 C0.68518684 10.68518684 0.02786228 7.84979946 -0.125 3.1875 C-0.063125 1.6096875 -0.063125 1.6096875 0 0 Z " fill="#E0EDF7" transform="translate(241,69)"/>
<path d="M0 0 C5.77227287 -0.36844295 10.7230161 0.53136805 16 3 C16.33 3.66 16.66 4.32 17 5 C10.69732561 4.63223832 5.66748157 3.83374078 0 1 C0 0.67 0 0.34 0 0 Z " fill="#216ADC" transform="translate(124,47)"/>
<path d="M0 0 C0.33 0.99 0.66 1.98 1 3 C-1.59746823 7.77934155 -4.65694279 10.85821393 -9 14 C-9.99 14 -10.98 14 -12 14 C-12 13.34 -12 12.68 -12 12 C-11.319375 11.649375 -10.63875 11.29875 -9.9375 10.9375 C-5.63501541 8.09969102 -3.00681146 4.13328261 0 0 Z " fill="#527CD3" transform="translate(280,115)"/>
<path d="M0 0 C0.33 0 0.66 0 1 0 C1.31378312 5.22971874 0.90940049 8.58573719 -2 13 C-5.66062697 15.96807592 -8.35312297 16.32420072 -13 16 C-10.81149344 14.54099563 -8.74981368 13.33359592 -6.4375 12.125 C-3.51081754 10.4490892 -1.98486242 9.34853223 -1 6 C-0.61709538 4.00889599 -0.27395385 2.00899487 0 0 Z " fill="#CCE3F6" transform="translate(234,114)"/>
<path d="M0 0 C0.99 0 1.98 0 3 0 C3 0.66 3 1.32 3 2 C4.32 2.33 5.64 2.66 7 3 C7 4.32 7 5.64 7 7 C5.35 7.33 3.7 7.66 2 8 C2 7.01 2 6.02 2 5 C1.34 5 0.68 5 0 5 C0 3.35 0 1.7 0 0 Z " fill="#1366F3" transform="translate(78,88)"/>
<path d="M0 0 C1.05128687 3.23529832 0.91901775 5.39722097 0.125 8.6875 C-0.05804688 9.47511719 -0.24109375 10.26273438 -0.4296875 11.07421875 C-1 13 -1 13 -2 14 C-4.01964199 14.07244053 -6.04167124 14.08377188 -8.0625 14.0625 C-9.16722656 14.05347656 -10.27195312 14.04445312 -11.41015625 14.03515625 C-12.69212891 14.01775391 -12.69212891 14.01775391 -14 14 C-14 13.67 -14 13.34 -14 13 C-10.7 13 -7.4 13 -4 13 C-3.79503906 12.22914063 -3.59007812 11.45828125 -3.37890625 10.6640625 C-3.10949219 9.66117188 -2.84007812 8.65828125 -2.5625 7.625 C-2.29566406 6.62726563 -2.02882812 5.62953125 -1.75390625 4.6015625 C-1 2 -1 2 0 0 Z " fill="#CEE8F9" transform="translate(137,117)"/>
<path d="M0 0 C0.66 1.32 1.32 2.64 2 4 C1.36191406 4.19335938 0.72382813 4.38671875 0.06640625 4.5859375 C-0.75988281 4.84632813 -1.58617187 5.10671875 -2.4375 5.375 C-3.67306641 5.75785156 -3.67306641 5.75785156 -4.93359375 6.1484375 C-7.17798016 6.80882227 -7.17798016 6.80882227 -8 9 C-11.96 8.67 -15.92 8.34 -20 8 C-20 7.67 -20 7.34 -20 7 C-19.28714844 6.97421875 -18.57429688 6.9484375 -17.83984375 6.921875 C-10.42857127 6.48298403 -5.40218949 5.40218949 0 0 Z " fill="#D4EBF7" transform="translate(276,124)"/>
<path d="M0 0 C0.66 0.33 1.32 0.66 2 1 C1.23302719 3.35548567 0.46153799 5.70933579 -0.3125 8.0625 C-0.52583984 8.71927734 -0.73917969 9.37605469 -0.95898438 10.05273438 C-2.4210244 14.48249744 -4.10888054 18.73527606 -6 23 C-7.60080151 18.99799622 -6.29279692 15.95443764 -5 12 C-4.34 12 -3.68 12 -3 12 C-2.814375 10.4221875 -2.814375 10.4221875 -2.625 8.8125 C-2.08859218 5.54041229 -1.36119965 2.99463924 0 0 Z " fill="#D1E9F8" transform="translate(137,88)"/>
<path d="M0 0 C1.75570313 0.02707031 1.75570313 0.02707031 3.546875 0.0546875 C4.88492187 0.08949219 4.88492187 0.08949219 6.25 0.125 C6.58 0.785 6.91 1.445 7.25 2.125 C5.92935547 2.21587891 5.92935547 2.21587891 4.58203125 2.30859375 C2.83986328 2.43427734 2.83986328 2.43427734 1.0625 2.5625 C-0.66033203 2.68431641 -0.66033203 2.68431641 -2.41796875 2.80859375 C-5.26598171 3.07903812 -7.96210482 3.50021747 -10.75 4.125 C-10.75 3.465 -10.75 2.805 -10.75 2.125 C-7.15537669 -0.13498595 -4.18404325 -0.08368087 0 0 Z " fill="#58AC2C" transform="translate(497.75,88.875)"/>
<path d="M0 0 C13.62931686 -1.03368414 13.62931686 -1.03368414 18.875 3 C19.94629137 3.96819639 21.0009046 4.95746567 22 6 C21.01 6.66 20.02 7.32 19 8 C16.96166576 6.7260411 14.96147874 5.38938077 13 4 C13 3.34 13 2.68 13 2 C8.71 1.67 4.42 1.34 0 1 C0 0.67 0 0.34 0 0 Z " fill="#789DDF" transform="translate(254,85)"/>
<path d="M0 0 C1.32 0.99 2.64 1.98 4 3 C3.67 3.66 3.34 4.32 3 5 C2.01 4.67 1.02 4.34 0 4 C0.33 4.66 0.66 5.32 1 6 C1.07116382 8.37402501 1.08409085 10.75000677 1.0625 13.125 C1.05347656 14.40632813 1.04445313 15.68765625 1.03515625 17.0078125 C1.02355469 17.99523437 1.01195312 18.98265625 1 20 C0.67 20 0.34 20 0 20 C-0.04898437 19.18015625 -0.09796875 18.3603125 -0.1484375 17.515625 C-0.22320312 16.43796875 -0.29796875 15.3603125 -0.375 14.25 C-0.44460938 13.18265625 -0.51421875 12.1153125 -0.5859375 11.015625 C-0.9728223 8.19793568 -1.55686166 6.4169634 -3 4 C-2.34 4 -1.68 4 -1 4 C-0.67 2.68 -0.34 1.36 0 0 Z " fill="#7EB860" transform="translate(460,93)"/>
<path d="M0 0 C2.31 0.33 4.62 0.66 7 1 C7 3.64 7 6.28 7 9 C6.34 9 5.68 9 5 9 C4.67 7.35 4.34 5.7 4 4 C3.01 4.33 2.02 4.66 1 5 C0.67 3.35 0.34 1.7 0 0 Z " fill="#1068F6" transform="translate(177,90)"/>
<path d="M0 0 C0.33 0 0.66 0 1 0 C1 4.62 1 9.24 1 14 C3.64 14 6.28 14 9 14 C9 14.33 9 14.66 9 15 C7.54207116 15.05399736 6.08357288 15.09279177 4.625 15.125 C3.81289063 15.14820312 3.00078125 15.17140625 2.1640625 15.1953125 C0 15 0 15 -2 13 C-2.01171875 10.9765625 -2.01171875 10.9765625 -1.6875 8.625 C-1.58824219 7.85414062 -1.48898438 7.08328125 -1.38671875 6.2890625 C-1.02612969 4.15466662 -0.55839834 2.09041429 0 0 Z " fill="#D2E6F8" transform="translate(26,109)"/>
<path d="M0 0 C0.33 0 0.66 0 1 0 C1.144375 1.11375 1.28875 2.2275 1.4375 3.375 C1.78372035 6.82142047 1.78372035 6.82142047 3 9 C2.360625 9.103125 1.72125 9.20625 1.0625 9.3125 C0.0415625 9.6528125 0.0415625 9.6528125 -1 10 C-1.33 10.99 -1.66 11.98 -2 13 C-3.37734745 9.17403486 -2.7995385 5.92500718 -2 2 C-1.34 1.34 -0.68 0.68 0 0 Z " fill="#1F6BE9" transform="translate(240,59)"/>
<path d="M0 0 C1.77174819 0.08723378 3.54247377 0.19541655 5.3125 0.3125 C6.29863281 0.37050781 7.28476563 0.42851563 8.30078125 0.48828125 C11 1 11 1 14 4 C9.71 3.67 5.42 3.34 1 3 C0.67 2.01 0.34 1.02 0 0 Z " fill="#256CE0" transform="translate(165,60)"/>
<path d="M0 0 C-0.33 0.66 -0.66 1.32 -1 2 C0.65 2 2.3 2 4 2 C1.64031256 4.09749995 0.45383006 4.96905704 -2.75 5.1875 C-3.86375 5.0946875 -3.86375 5.0946875 -5 5 C-4.67 3.68 -4.34 2.36 -4 1 C-5.98 1 -7.96 1 -10 1 C-10 0.67 -10 0.34 -10 0 C-6.33694766 -0.74926071 -3.57644848 -1.2380014 0 0 Z " fill="#77B259" transform="translate(452,125)"/>
<path d="M0 0 C0.66 0 1.32 0 2 0 C1.43174347 5.54050113 -0.62886517 10.03715966 -3 15 C-3.33 14.34 -3.66 13.68 -4 13 C-4.66 13 -5.32 13 -6 13 C-4.97648478 10.79550567 -3.9690037 8.96156459 -2.4375 7.0625 C-0.79371058 4.70401953 -0.39201607 2.82251571 0 0 Z " fill="#377CE4" transform="translate(140,104)"/>
<path d="M0 0 C3.3 0 6.6 0 10 0 C10.66 2.31 11.32 4.62 12 7 C11.46375 6.34 10.9275 5.68 10.375 5 C8.11454281 2.71433147 8.11454281 2.71433147 4.875 2.6875 C2.06060827 2.82471926 2.06060827 2.82471926 0 4 C0 2.68 0 1.36 0 0 Z " fill="#3A7ADC" transform="translate(107,87)"/>
<path d="M0 0 C0.33 0 0.66 0 1 0 C1 6.27 1 12.54 1 19 C2.32 19.33 3.64 19.66 5 20 C3.625 21.5 3.625 21.5 2 23 C1.34 23 0.68 23 0 23 C0 15.41 0 7.82 0 0 Z " fill="#D5F0C7" transform="translate(482,70)"/>
<path d="M0 0 C0.99 0.66 1.98 1.32 3 2 C2.525625 2.598125 2.05125 3.19625 1.5625 3.8125 C-1.33372722 7.8672181 -1.10697213 11.34003813 -1.0625 16.1875 C-1.05347656 17.45980469 -1.04445313 18.73210937 -1.03515625 20.04296875 C-1.02355469 21.01878906 -1.01195312 21.99460937 -1 23 C-1.66 22.67 -2.32 22.34 -3 22 C-3.30372936 13.99054432 -3.50848663 7.30934715 0 0 Z " fill="#E1F0FA" transform="translate(372,93)"/>
<path d="M0 0 C2.97 0 5.94 0 9 0 C8.34 3.3 7.68 6.6 7 10 C6.67 10 6.34 10 6 10 C6 7.36 6 4.72 6 2 C4.35 1.67 2.7 1.34 1 1 C0.67 1.99 0.34 2.98 0 4 C-0.33 3.34 -0.66 2.68 -1 2 C-0.67 1.34 -0.34 0.68 0 0 Z " fill="#4882DD" transform="translate(139,87)"/>
<path d="M0 0 C0.66 0.66 1.32 1.32 2 2 C1.01 2 0.02 2 -1 2 C-1.33 2.66 -1.66 3.32 -2 4 C-5.63 3.01 -9.26 2.02 -13 1 C-11.68 0.67 -10.36 0.34 -9 0 C-5.47955362 -1.17348213 -3.57539179 -0.83679382 0 0 Z " fill="#437FDD" transform="translate(146,51)"/>
<path d="M0 0 C1.32 0 2.64 0 4 0 C4 0.66 4 1.32 4 2 C6.97 2 9.94 2 13 2 C13 2.33 13 2.66 13 3 C11.02 3.33 9.04 3.66 7 4 C7 4.66 7 5.32 7 6 C6.34 6 5.68 6 5 6 C5 5.34 5 4.68 5 4 C3.35 4 1.7 4 0 4 C0 2.68 0 1.36 0 0 Z " fill="#1168EF" transform="translate(22,124)"/>
<path d="M0 0 C0 0.33 0 0.66 0 1 C-3.3 1.33 -6.6 1.66 -10 2 C-10.33 2.99 -10.66 3.98 -11 5 C-12.65 5 -14.3 5 -16 5 C-11.58448688 -1.09036292 -7.15036487 -0.56351387 0 0 Z " fill="#D2E9C5" transform="translate(450,92)"/>
<path d="M0 0 C0.69738281 0.00902344 1.39476562 0.01804687 2.11328125 0.02734375 C3.82566958 0.05080112 5.53788004 0.08666896 7.25 0.125 C7.58 0.785 7.91 1.445 8.25 2.125 C7.39277344 2.09019531 6.53554688 2.05539063 5.65234375 2.01953125 C-0.96699334 1.86281639 -5.92011554 1.871111 -11.75 5.125 C-11.75 4.135 -11.75 3.145 -11.75 2.125 C-8.00764681 -0.32489101 -4.30774581 -0.10586143 0 0 Z " fill="#3F70D0" transform="translate(259.75,85.875)"/>
<path d="M0 0 C0.99 0.33 1.98 0.66 3 1 C3.33 5.29 3.66 9.58 4 14 C0.7354972 10.7354972 0.06763945 6.58952701 -0.125 2.0625 C-0.08375 1.381875 -0.0425 0.70125 0 0 Z " fill="#2E6FE6" transform="translate(68,103)"/>
<path d="M0 0 C0.66 0 1.32 0 2 0 C2.33 2.64 2.66 5.28 3 8 C2.01 7.67 1.02 7.34 0 7 C0 7.99 0 8.98 0 10 C-0.99 10.33 -1.98 10.66 -3 11 C-2.01 7.37 -1.02 3.74 0 0 Z " fill="#387BE6" transform="translate(103,97)"/>
<path d="M0 0 C6.19240462 0.68804496 12.01955594 2.28048715 18 4 C18 4.33 18 4.66 18 5 C11.58518742 5.42765417 6.11404596 3.85743168 0 2 C0 1.34 0 0.68 0 0 Z " fill="#D0E6F8" transform="translate(126,50)"/>
<path d="M0 0 C1.62463842 -0.05395478 3.24978541 -0.09277195 4.875 -0.125 C5.77992187 -0.14820312 6.68484375 -0.17140625 7.6171875 -0.1953125 C10 0 10 0 12 2 C12.125 4.625 12.125 4.625 12 7 C11.67 5.68 11.34 4.36 11 3 C7.37 2.67 3.74 2.34 0 2 C0 1.34 0 0.68 0 0 Z " fill="#4B7ED9" transform="translate(26,124)"/>
<path d="M0 0 C0.66 0 1.32 0 2 0 C2.75 2.1875 2.75 2.1875 3 5 C0.98160744 8.02758885 -1.43161642 10.44637725 -4 13 C-3.52140759 11.39566191 -3.04210442 9.79153584 -2.5625 8.1875 C-2.29566406 7.29417969 -2.02882813 6.40085937 -1.75390625 5.48046875 C-1.19612127 3.64526945 -0.60655425 1.81966274 0 0 Z " fill="#CBE1F7" transform="translate(111,101)"/>
<path d="M0 0 C0.66 0 1.32 0 2 0 C2.69710731 1.28650706 3.38242876 2.57940665 4.0625 3.875 C4.63677734 4.95394531 4.63677734 4.95394531 5.22265625 6.0546875 C5.47917969 6.69664063 5.73570313 7.33859375 6 8 C5.67 8.66 5.34 9.32 5 10 C4.01 9.67 3.02 9.34 2 9 C2 8.01 2 7.02 2 6 C1.34 6 0.68 6 0 6 C-1 3 -1 3 0 0 Z " fill="#226BEC" transform="translate(69,98)"/>
<path d="M0 0 C2.875 -0.1875 2.875 -0.1875 6 0 C8 3 8 3 8 7 C6.68 6.34 5.36 5.68 4 5 C4 4.01 4 3.02 4 2 C2.68 1.67 1.36 1.34 0 1 C0 0.67 0 0.34 0 0 Z " fill="#1067F8" transform="translate(109,89)"/>
<path d="M0 0 C2.31 0.33 4.62 0.66 7 1 C7 1.66 7 2.32 7 3 C8.32 3.33 9.64 3.66 11 4 C11 4.66 11 5.32 11 6 C12.65 6 14.3 6 16 6 C16 6.33 16 6.66 16 7 C11.26194558 7.33056194 8.88674477 6.6908233 5 4 C4.071875 3.46375 3.14375 2.9275 2.1875 2.375 C1.465625 1.92125 0.74375 1.4675 0 1 C0 0.67 0 0.34 0 0 Z " fill="#477EDA" transform="translate(20,127)"/>
<path d="M0 0 C1.5 1.375 1.5 1.375 3 3 C3 3.66 3 4.32 3 5 C4.98 5.66 6.96 6.32 9 7 C8.360625 7.12375 7.72125 7.2475 7.0625 7.375 C6.0415625 7.684375 6.0415625 7.684375 5 8 C4.67 8.66 4.34 9.32 4 10 C2.68 9.34 1.36 8.68 0 8 C0.66 7.67 1.32 7.34 2 7 C2 6.01 2 5.02 2 4 C1.34 4 0.68 4 0 4 C0 2.68 0 1.36 0 0 Z " fill="#76B156" transform="translate(431,117)"/>
<path d="M0 0 C0.66 0 1.32 0 2 0 C2 3.63 2 7.26 2 11 C-0.71843438 7.37542083 -1.41789544 6.19115285 -2 2 C-1.34 2 -0.68 2 0 2 C0 1.34 0 0.68 0 0 Z " fill="#387AE9" transform="translate(116,104)"/>
<path d="M0 0 C3.28212246 0.43761633 4.84832931 1.52557871 7 4 C5.25 7.875 5.25 7.875 3 9 C3 7.02 3 5.04 3 3 C1.68 2.34 0.36 1.68 -1 1 C-0.67 0.67 -0.34 0.34 0 0 Z " fill="#447BDA" transform="translate(183,118)"/>
<path d="M0 0 C1.125 1.6875 1.125 1.6875 2 4 C1.37498605 5.68272986 0.69822617 7.34630643 0 9 C-0.46797058 11.98897336 -0.75044193 14.98560123 -1 18 C-1.33 18 -1.66 18 -2 18 C-2.20852314 11.59370576 -2.1583195 6.07027358 0 0 Z " fill="#467EE1" transform="translate(20,106)"/>
<path d="M0 0 C1.27212426 4.43808765 0.84828159 7.96412419 -0.9375 12.25 C-2 14 -2 14 -4 16 C-3.27275406 10.47293087 -1.66554027 5.30039859 0 0 Z " fill="#3C7AE2" transform="translate(137,92)"/>
<path d="M0 0 C-0.66 0 -1.32 0 -2 0 C-2 0.66 -2 1.32 -2 2 C-1.34 2 -0.68 2 0 2 C-0.33 2.66 -0.66 3.32 -1 4 C-4.3 3.34 -7.6 2.68 -11 2 C-10.67 1.34 -10.34 0.68 -10 0 C-6.35526801 -0.89093449 -3.57257469 -1.23666047 0 0 Z " fill="#1D6AE3" transform="translate(320,93)"/>
<path d="M0 0 C0.66 0 1.32 0 2 0 C2.125 7.75 2.125 7.75 1 10 C-0.32 9.67 -1.64 9.34 -3 9 C-2.01 6.03 -1.02 3.06 0 0 Z " fill="#266AE6" transform="translate(271,48)"/>
<path d="M0 0 C-0.33 0.99 -0.66 1.98 -1 3 C-5.455 3.495 -5.455 3.495 -10 4 C-10 3.34 -10 2.68 -10 2 C-3.375 0 -3.375 0 0 0 Z " fill="#296BE4" transform="translate(259,63)"/>
<path d="M0 0 C1 3 1 3 0.22265625 4.82421875 C-0.8515625 6.54947917 -1.92578125 8.27473958 -3 10 C-3.66 10 -4.32 10 -5 10 C-4.38545304 6.00544473 -2.29353263 3.25533664 0 0 Z " fill="#1068F5" transform="translate(25,105)"/>
<path d="M0 0 C2.875 0.6875 2.875 0.6875 6 2 C8.20185798 5.60304034 8.19307102 8.84897312 8 13 C6.8278944 10.65578881 5.67638361 8.31055639 4.5625 5.9375 C3.2182755 3.41035794 2.14224039 1.83620604 0 0 Z " fill="#E6F6DA" transform="translate(508,89)"/>
<path d="M0 0 C5.52628901 1.19194469 8.17819158 2.5991297 12 7 C11.01 7.495 11.01 7.495 10 8 C10 7.34 10 6.68 10 6 C8.35 5.67 6.7 5.34 5 5 C5 4.34 5 3.68 5 3 C3.35 2.67 1.7 2.34 0 2 C0 1.34 0 0.68 0 0 Z " fill="#3271E2" transform="translate(49,71)"/>
<path d="M0 0 C0.98120464 3.05263664 0.98120464 4.94736336 0 8 C1.65 8 3.3 8 5 8 C3 10 3 10 0.375 10.125 C-0.40875 10.08375 -1.1925 10.0425 -2 10 C-1.125 2.25 -1.125 2.25 0 0 Z " fill="#CDE2F7" transform="translate(244,55)"/>
<path d="M0 0 C1.65 0 3.3 0 5 0 C5 0.99 5 1.98 5 3 C5.66 3 6.32 3 7 3 C7 4.65 7 6.3 7 8 C5.02 8.99 5.02 8.99 3 10 C3.66 8.35 4.32 6.7 5 5 C3.35 3.35 1.7 1.7 0 0 Z " fill="#CBE4F4" transform="translate(405,117)"/>
<path d="M0 0 C0.33 0 0.66 0 1 0 C1.41176754 3.60296594 1.1535853 4.78402067 -1 7.8125 C-1.66 8.534375 -2.32 9.25625 -3 10 C-3.33 7.36 -3.66 4.72 -4 2 C-2.68 2 -1.36 2 0 2 C0 1.34 0 0.68 0 0 Z " fill="#64AB41" transform="translate(485,92)"/>
<path d="M0 0 C3.3 0 6.6 0 10 0 C10.33 1.98 10.66 3.96 11 6 C10.29875 5.360625 9.5975 4.72125 8.875 4.0625 C5.77158767 1.83613898 3.75379861 1.34919057 0 1 C0 0.67 0 0.34 0 0 Z " fill="#4884E0" transform="translate(45,81)"/>
<path d="M0 0 C0 0.99 0 1.98 0 3 C-2.70879335 4.35439668 -5.00933268 4.06501451 -8 4 C-7.67 3.01 -7.34 2.02 -7 1 C-4 0 -4 0 0 0 Z " fill="#3376E1" transform="translate(249,65)"/>
<path d="M0 0 C0.66 0 1.32 0 2 0 C1.52797514 4.24822374 -0.96655518 6.19989709 -4 9 C-3.67 7.02 -3.34 5.04 -3 3 C-2.34 3 -1.68 3 -1 3 C-0.67 2.01 -0.34 1.02 0 0 Z " fill="#2D70DB" transform="translate(55,60)"/>
<path d="M0 0 C2.1464753 0.11344376 4.29220592 0.24106345 6.4375 0.375 C8.22994141 0.47941406 8.22994141 0.47941406 10.05859375 0.5859375 C11.02925781 0.72257812 11.99992187 0.85921875 13 1 C13.33 1.66 13.66 2.32 14 3 C13.08476562 2.98839844 12.16953125 2.97679687 11.2265625 2.96484375 C10.03804688 2.95582031 8.84953125 2.94679687 7.625 2.9375 C5.84996094 2.92009766 5.84996094 2.92009766 4.0390625 2.90234375 C1.08078479 2.78533407 1.08078479 2.78533407 -1 4 C-0.67 2.68 -0.34 1.36 0 0 Z " fill="#CFE5F6" transform="translate(253,37)"/>
<path d="M0 0 C0.99 0.33 1.98 0.66 3 1 C3 1.99 3 2.98 3 4 C0.36 4.33 -2.28 4.66 -5 5 C-3.35 3.35 -1.7 1.7 0 0 Z " fill="#5AAB30" transform="translate(454,123)"/>
<path d="M0 0 C2.01136276 2.55991624 3.62845496 5.04590299 5 8 C3.68 8 2.36 8 1 8 C0.67 8.66 0.34 9.32 0 10 C-0.66 9.34 -1.32 8.68 -2 8 C-1.34 8 -0.68 8 0 8 C0 5.36 0 2.72 0 0 Z " fill="#2D6FE6" transform="translate(158,111)"/>
<path d="M0 0 C0.66 0.99 1.32 1.98 2 3 C1.1875 4.9375 1.1875 4.9375 0 7 C-0.99 7.33 -1.98 7.66 -3 8 C-3 6.35 -3 4.7 -3 3 C-2.34 3 -1.68 3 -1 3 C-0.67 2.01 -0.34 1.02 0 0 Z " fill="#FBFBF9" transform="translate(244,97)"/>
<path d="M0 0 C7.2264303 -0.61240935 7.2264303 -0.61240935 11 2.375 C13 5 13 5 13 7 C12.34 7 11.68 7 11 7 C11 6.01 11 5.02 11 4 C9.68 3.67 8.36 3.34 7 3 C7 2.34 7 1.68 7 1 C4.69 1 2.38 1 0 1 C0 0.67 0 0.34 0 0 Z " fill="#C4E0F7" transform="translate(308,95)"/>
<path d="M0 0 C1.23556641 0.01740234 1.23556641 0.01740234 2.49609375 0.03515625 C3.32238281 0.04417969 4.14867187 0.05320312 5 0.0625 C5.63808594 0.07410156 6.27617187 0.08570312 6.93359375 0.09765625 C6.93359375 0.42765625 6.93359375 0.75765625 6.93359375 1.09765625 C4.95359375 1.09765625 2.97359375 1.09765625 0.93359375 1.09765625 C0.93359375 1.75765625 0.93359375 2.41765625 0.93359375 3.09765625 C-1.04640625 3.75765625 -3.02640625 4.41765625 -5.06640625 5.09765625 C-2.6606399 0.12573913 -2.6606399 0.12573913 0 0 Z " fill="#E4F4F8" transform="translate(308.06640625,95.90234375)"/>
<path d="M0 0 C0.66 0.33 1.32 0.66 2 1 C2.73075648 3.3140622 3.40138258 5.64828869 4 8 C3.2575 7.54625 2.515 7.0925 1.75 6.625 C-0.46930578 5.31359204 -2.67967822 4.11719197 -5 3 C-3.35 3 -1.7 3 0 3 C0 2.01 0 1.02 0 0 Z " fill="#E5F4E0" transform="translate(268,91)"/>
<path d="M0 0 C5.445 1.485 5.445 1.485 11 3 C8 5 8 5 6.0625 4.75 C3.94325972 3.97936717 1.98677042 3.0643413 0 2 C0 1.34 0 0.68 0 0 Z " fill="#DAEEF8" transform="translate(161,61)"/>
<path d="M0 0 C-3.45214853 2.30143236 -4.23479324 2.13833854 -8.1875 1.625 C-9.53908203 1.45871094 -9.53908203 1.45871094 -10.91796875 1.2890625 C-11.60503906 1.19367188 -12.29210937 1.09828125 -13 1 C-13 0.67 -13 0.34 -13 0 C-8.34462607 -0.83796731 -4.62921525 -1.0161692 0 0 Z " fill="#6590DB" transform="translate(270,129)"/>
<path d="M0 0 C1.66905241 3.33810482 2.8741386 6.46157845 4 10 C2.68 10 1.36 10 0 10 C0 6.7 0 3.4 0 0 Z " fill="#D7E7F3" transform="translate(119,120)"/>
<path d="M0 0 C1.32 0.66 2.64 1.32 4 2 C3.071875 3.1446875 3.071875 3.1446875 2.125 4.3125 C-0.05597052 6.99625809 -0.05597052 6.99625809 -2 10 C-1.85950482 8.52031676 -1.71245174 7.04125484 -1.5625 5.5625 C-1.48128906 4.73878906 -1.40007812 3.91507812 -1.31640625 3.06640625 C-1 1 -1 1 0 0 Z " fill="#3375E3" transform="translate(160,95)"/>
<path d="M0 0 C0.66 0.33 1.32 0.66 2 1 C1.67 3.31 1.34 5.62 1 8 C0.01 8 -0.98 8 -2 8 C-2.6875 6.25 -2.6875 6.25 -3 4 C-1.5625 1.75 -1.5625 1.75 0 0 Z " fill="#2473E6" transform="translate(59,82)"/>
<path d="M0 0 C2.31 0.33 4.62 0.66 7 1 C5.68 1.33 4.36 1.66 3 2 C3 2.66 3 3.32 3 4 C0.69 3.67 -1.62 3.34 -4 3 C-2.68 2.67 -1.36 2.34 0 2 C0 1.34 0 0.68 0 0 Z " fill="#4A83DD" transform="translate(162,58)"/>
<path d="M0 0 C0.33 0.66 0.66 1.32 1 2 C-2.96 2 -6.92 2 -11 2 C-8.76221009 -2.47557983 -4.12017842 -0.8392956 0 0 Z " fill="#B9D6F3" transform="translate(265,43)"/>
<path d="M0 0 C0.33 0 0.66 0 1 0 C1.38063221 2.3260857 1.71269945 4.66055264 2 7 C1 8 1 8 -0.84765625 8.09765625 C-2.8984375 8.06510417 -4.94921875 8.03255208 -7 8 C-7 7.67 -7 7.34 -7 7 C-5.35 6.67 -3.7 6.34 -2 6 C-1.34 4.02 -0.68 2.04 0 0 Z " fill="#C7DBF2" transform="translate(38,127)"/>
<path d="M0 0 C1.04973814 4.19895255 0.72795155 6.79405774 0 11 C-0.99 11 -1.98 11 -3 11 C-2.01 7.37 -1.02 3.74 0 0 Z " fill="#D5E8F6" transform="translate(106,114)"/>
<path d="M0 0 C2 2 2 2 2.1953125 3.9453125 C2.13020833 5.96354167 2.06510417 7.98177083 2 10 C0.4375 8.375 0.4375 8.375 -1 6 C-0.6875 2.75 -0.6875 2.75 0 0 Z " fill="#0C69F3" transform="translate(72,105)"/>
<path d="M0 0 C2.0625 1.625 2.0625 1.625 4 4 C3.75 7.25 3.75 7.25 3 10 C2.01 9.34 1.02 8.68 0 8 C0 7.34 0 6.68 0 6 C0.66 6 1.32 6 2 6 C1.34 4.02 0.68 2.04 0 0 Z " fill="#2B6DE7" transform="translate(61,79)"/>
<path d="M0 0 C1.32 0.66 2.64 1.32 4 2 C1.82575883 4.50037734 0.26954202 5.43628586 -3 6 C-2.42655063 3.13275314 -2.1385485 2.1385485 0 0 Z " fill="#2F72DE" transform="translate(68,49)"/>
<path d="M0 0 C2.31 0 4.62 0 7 0 C6.67 1.65 6.34 3.3 6 5 C2.83884224 3.63016497 2.0072908 3.0109362 0 0 Z " fill="#2571E1" transform="translate(154,122)"/>
<path d="M0 0 C1.0625 1.8125 1.0625 1.8125 2 4 C1.67 4.99 1.34 5.98 1 7 C0.01 7 -0.98 7 -2 7 C-2.33 7.99 -2.66 8.98 -3 10 C-3 8.68 -3 7.36 -3 6 C-2.34 6 -1.68 6 -1 6 C-0.67 4.02 -0.34 2.04 0 0 Z " fill="#236BEB" transform="translate(134,118)"/>
<path d="M0 0 C2.4294516 3.6441774 2.16179575 5.71241272 2 10 C1.01 10.495 1.01 10.495 0 11 C-1.125 6.25 -1.125 6.25 0 4 C0 2.68 0 1.36 0 0 Z " fill="#1B6DEA" transform="translate(123,107)"/>
<path d="M0 0 C-2.31 1.65 -4.62 3.3 -7 5 C-7 3.35 -7 1.7 -7 0 C-4 -1 -4 -1 0 0 Z " fill="#3572E3" transform="translate(308,96)"/>
<path d="M0 0 C0.53625 0.2475 1.0725 0.495 1.625 0.75 C-0.355 1.41 -2.335 2.07 -4.375 2.75 C-4.375 3.41 -4.375 4.07 -4.375 4.75 C-5.695 4.42 -7.015 4.09 -8.375 3.75 C-2.95961538 -0.31153846 -2.95961538 -0.31153846 0 0 Z " fill="#4C86DD" transform="translate(208.375,87.25)"/>
<path d="M0 0 C-0.66 1.32 -1.32 2.64 -2 4 C-4.31 4 -6.62 4 -9 4 C-6.10130984 1.70103884 -3.84906588 0 0 0 Z " fill="#D5EAF6" transform="translate(267,62)"/>
<path d="M0 0 C0.66 0.33 1.32 0.66 2 1 C1.01 2.98 0.02 4.96 -1 7 C-1.33 6.34 -1.66 5.68 -2 5 C-2.99 4.67 -3.98 4.34 -5 4 C-3.35 2.68 -1.7 1.36 0 0 Z " fill="#4C87DA" transform="translate(65,50)"/>
<path d="M0 0 C0 0.66 0 1.32 0 2 C-2.97 2 -5.94 2 -9 2 C-6.98558063 -2.02883874 -3.72407517 -0.90585612 0 0 Z " fill="#1565FA" transform="translate(350,90)"/>
<path d="M0 0 C0.99 0.33 1.98 0.66 3 1 C2.67 1.99 2.34 2.98 2 4 C1.34 4 0.68 4 0 4 C0 4.66 0 5.32 0 6 C-0.99 5.67 -1.98 5.34 -3 5 C-2.01 3.35 -1.02 1.7 0 0 Z " fill="#0E68F4" transform="translate(382,119)"/>
<path d="M0 0 C2.475 0.495 2.475 0.495 5 1 C5 1.99 5 2.98 5 4 C5.66 4.33 6.32 4.66 7 5 C4.625 4.75 4.625 4.75 2 4 C0.6875 1.9375 0.6875 1.9375 0 0 Z " fill="#E9F4F7" transform="translate(209,99)"/>
<path d="M0 0 C1.98 0.99 1.98 0.99 4 2 C4 2.99 4 3.98 4 5 C4.66 5 5.32 5 6 5 C5.34 6.32 4.68 7.64 4 9 C2.68 6.03 1.36 3.06 0 0 Z " fill="#D4E4F6" transform="translate(278,94)"/>
<path d="M0 0 C1.32 0.33 2.64 0.66 4 1 C4 2.32 4 3.64 4 5 C3.01 5 2.02 5 1 5 C0.67 3.35 0.34 1.7 0 0 Z " fill="#296EE3" transform="translate(244,86)"/>
<path d="M0 0 C0.33 0.99 0.66 1.98 1 3 C-0.4375 5.1875 -0.4375 5.1875 -2 7 C-2.99 6.67 -3.98 6.34 -5 6 C-3.35 4.02 -1.7 2.04 0 0 Z " fill="#D0E7F6" transform="translate(42,84)"/>
<path d="M0 0 C2.97 0.33 5.94 0.66 9 1 C6 3 6 3 2 3 C2 2.34 2 1.68 2 1 C1.34 0.67 0.68 0.34 0 0 Z " fill="#286DE7" transform="translate(180,64)"/>
</svg>
